<svg width="977" height="1089" viewBox="0 0 977 1089" fill="none" xmlns="http://www.w3.org/2000/svg">
<path d="M0 16.791C0 7.95447 7.16344 0.791016 16 0.791016H961C969.837 0.791016 977 7.95446 977 16.791V464.791C977 473.628 969.837 480.791 961 480.791H16C7.16346 480.791 0 473.628 0 464.791V16.791Z" fill="#F73B20"/>
<g clip-path="url(#clip0_7329_31050)">
<g clip-path="url(#clip1_7329_31050)">
<path d="M555.005 209.709C546.98 209.709 539.135 212.089 532.463 216.547C525.79 221.006 520.589 227.343 517.518 234.757C514.447 242.171 513.644 250.33 515.209 258.201C516.775 266.072 520.639 273.301 526.314 278.976C531.989 284.651 539.219 288.515 547.09 290.081C554.96 291.646 563.119 290.843 570.533 287.772C577.947 284.701 584.284 279.5 588.743 272.827C593.201 266.155 595.581 258.31 595.581 250.285C595.581 239.523 591.306 229.203 583.697 221.593C576.087 213.984 565.767 209.709 555.005 209.709ZM555.005 271.721C550.757 271.729 546.601 270.475 543.064 268.12C539.528 265.765 536.77 262.414 535.138 258.491C533.507 254.568 533.076 250.249 533.901 246.08C534.725 241.912 536.767 238.082 539.769 235.075C542.771 232.068 546.597 230.019 550.764 229.187C554.93 228.356 559.25 228.779 563.176 230.403C567.102 232.027 570.459 234.78 572.82 238.312C575.181 241.844 576.442 245.998 576.442 250.246C576.444 255.937 574.187 261.395 570.168 265.423C566.149 269.45 560.696 271.718 555.005 271.729V271.721Z" fill="white"/>
<path d="M329.235 270.197H301V289.252H332.22C334.594 289.311 336.955 288.885 339.158 288.001C341.362 287.116 343.362 285.791 345.036 284.107C346.73 282.409 348.059 280.383 348.944 278.153C349.829 275.923 350.249 273.536 350.181 271.139V190.791H330.383V269.049C330.383 269.353 330.262 269.645 330.047 269.861C329.831 270.076 329.539 270.197 329.235 270.197Z" fill="white"/>
<path d="M420.574 214.654C414.797 211.355 408.248 209.649 401.596 209.708C396.307 209.652 391.06 210.652 386.163 212.65C381.266 214.648 376.817 217.604 373.077 221.344C369.337 225.084 366.381 229.533 364.383 234.43C362.385 239.327 361.385 244.574 361.441 249.863C361.345 257.029 363.152 264.091 366.677 270.331C370.202 276.57 375.32 281.763 381.507 285.378C387.693 288.98 394.736 290.847 401.894 290.783C409.895 290.783 417.053 289.252 423.177 286.328C429.302 283.403 433.896 279.139 436.797 273.81L437.149 273.167L422.083 264.095L421.7 264.792C419.91 267.853 417.214 270.282 413.983 271.743C410.316 273.526 406.286 274.436 402.208 274.4C396.283 274.4 391.268 272.677 387.31 269.27C383.551 266.032 381.094 261.546 379.991 255.926H438.321L438.443 255.306C438.917 252.525 439.13 249.706 439.079 246.885C439.165 240.345 437.493 233.903 434.236 228.231C430.98 222.56 426.258 217.868 420.567 214.646L420.574 214.654ZM387.838 229.537C391.529 226.775 396.046 225.342 400.654 225.472C405.283 225.342 409.813 226.832 413.462 229.682C416.636 232.174 418.886 235.656 419.855 239.574H380.902C382.133 235.597 384.554 232.094 387.838 229.537Z" fill="white"/>
<path d="M481.582 190.791H462.55V211.27H446.473V229.369H462.55V271.116C462.483 273.522 462.913 275.916 463.812 278.149C464.712 280.381 466.062 282.405 467.779 284.092C469.47 285.774 471.482 287.098 473.696 287.984C475.909 288.871 478.279 289.302 480.663 289.252H507.711V271.131H482.731C482.426 271.131 482.134 271.01 481.918 270.795C481.703 270.579 481.582 270.287 481.582 269.983V229.369H507.711V211.27H481.582V190.791Z" fill="white"/>
<path d="M671.715 216.416C670.017 214.722 667.99 213.392 665.761 212.508C663.531 211.623 661.144 211.202 658.746 211.271H606.09V289.253H624.969V230.518C624.969 230.213 625.09 229.921 625.305 229.706C625.521 229.49 625.813 229.369 626.117 229.369H656.679C656.984 229.369 657.276 229.49 657.491 229.706C657.707 229.921 657.828 230.213 657.828 230.518V289.253H676.86V229.384C676.929 226.987 676.508 224.6 675.623 222.37C674.739 220.14 673.409 218.114 671.715 216.416Z" fill="white"/>
</g>
</g>
<rect x="0.5" y="505.291" width="475.5" height="279" rx="15.5" fill="white"/>
<rect x="0.5" y="505.291" width="475.5" height="279" rx="15.5" stroke="black"/>
<g clip-path="url(#clip2_7329_31050)">
<g clip-path="url(#clip3_7329_31050)">
<path d="M280.812 624.898C275.676 624.898 270.655 626.421 266.385 629.275C262.114 632.128 258.786 636.184 256.82 640.929C254.855 645.674 254.341 650.896 255.343 655.933C256.345 660.97 258.818 665.598 262.45 669.229C266.082 672.861 270.709 675.334 275.746 676.336C280.783 677.338 286.005 676.824 290.75 674.859C295.495 672.893 299.551 669.565 302.404 665.294C305.258 661.024 306.781 656.003 306.781 650.867C306.781 643.98 304.045 637.374 299.175 632.504C294.305 627.634 287.699 624.898 280.812 624.898ZM280.812 664.586C278.093 664.591 275.433 663.789 273.17 662.282C270.907 660.775 269.141 658.63 268.097 656.119C267.053 653.608 266.778 650.844 267.305 648.176C267.833 645.509 269.14 643.057 271.061 641.133C272.982 639.208 275.431 637.897 278.097 637.365C280.764 636.832 283.529 637.103 286.042 638.143C288.554 639.182 290.702 640.944 292.213 643.204C293.725 645.465 294.531 648.123 294.531 650.842C294.533 654.484 293.089 657.977 290.516 660.555C287.944 663.133 284.454 664.584 280.812 664.591V664.586Z" fill="#F73B20"/>
<path d="M136.32 663.611H118.25V675.806H138.231C139.75 675.844 141.261 675.571 142.671 675.005C144.082 674.439 145.362 673.591 146.433 672.514C147.517 671.426 148.368 670.13 148.934 668.703C149.5 667.276 149.77 665.748 149.726 664.213V612.791H137.055V662.876C137.055 663.071 136.978 663.258 136.84 663.396C136.702 663.533 136.515 663.611 136.32 663.611Z" fill="#F73B20"/>
<path d="M194.777 628.063C191.08 625.952 186.888 624.86 182.631 624.898C179.246 624.862 175.888 625.502 172.754 626.781C169.62 628.059 166.772 629.951 164.379 632.345C161.985 634.738 160.093 637.586 158.815 640.72C157.536 643.854 156.896 647.212 156.932 650.597C156.871 655.183 158.027 659.703 160.283 663.696C162.539 667.689 165.814 671.013 169.774 673.327C173.733 675.632 178.241 676.827 182.822 676.786C187.942 676.786 192.523 675.806 196.443 673.934C200.363 672.063 203.303 669.333 205.16 665.923L205.385 665.512L195.743 659.705L195.498 660.151C194.352 662.11 192.626 663.665 190.559 664.6C188.212 665.741 185.632 666.323 183.023 666.3C179.231 666.3 176.021 665.198 173.488 663.018C171.082 660.945 169.51 658.074 168.804 654.477H206.135L206.213 654.081C206.517 652.301 206.653 650.496 206.62 648.691C206.676 644.506 205.605 640.382 203.521 636.753C201.437 633.123 198.415 630.12 194.772 628.058L194.777 628.063ZM173.826 637.588C176.188 635.821 179.079 634.904 182.028 634.986C184.991 634.904 187.89 635.857 190.226 637.681C192.257 639.276 193.697 641.504 194.317 644.012H169.387C170.175 641.467 171.724 639.225 173.826 637.588Z" fill="#F73B20"/>
<path d="M233.822 612.791H221.641V625.898H211.352V637.481H221.641V664.199C221.598 665.739 221.873 667.271 222.449 668.7C223.025 670.129 223.889 671.424 224.987 672.504C226.07 673.58 227.357 674.427 228.774 674.995C230.191 675.562 231.708 675.838 233.234 675.806H250.544V664.209H234.557C234.362 664.209 234.175 664.131 234.037 663.993C233.899 663.855 233.822 663.669 233.822 663.474V637.481H250.544V625.898H233.822V612.791Z" fill="#F73B20"/>
<path d="M355.508 629.191C354.421 628.107 353.124 627.256 351.697 626.69C350.27 626.124 348.743 625.854 347.208 625.898H313.508V675.807H325.591V638.216C325.591 638.021 325.668 637.834 325.806 637.696C325.944 637.559 326.131 637.481 326.325 637.481H345.885C346.08 637.481 346.267 637.559 346.405 637.696C346.543 637.834 346.62 638.021 346.62 638.216V675.807H358.801V637.491C358.845 635.956 358.575 634.429 358.009 633.002C357.443 631.575 356.592 630.278 355.508 629.191Z" fill="#F73B20"/>
</g>
</g>
<rect x="500.5" y="504.791" width="476.5" height="280" rx="16" fill="black"/>
<g clip-path="url(#clip4_7329_31050)">
<g clip-path="url(#clip5_7329_31050)">
<path d="M781.312 624.898C776.176 624.898 771.155 626.421 766.885 629.275C762.614 632.128 759.286 636.184 757.32 640.929C755.355 645.674 754.841 650.896 755.843 655.933C756.845 660.97 759.318 665.598 762.95 669.229C766.582 672.861 771.209 675.334 776.246 676.336C781.283 677.338 786.505 676.824 791.25 674.859C795.995 672.893 800.051 669.565 802.904 665.294C805.758 661.024 807.281 656.003 807.281 650.867C807.281 643.98 804.545 637.374 799.675 632.504C794.805 627.634 788.199 624.898 781.312 624.898ZM781.312 664.586C778.593 664.591 775.933 663.789 773.67 662.282C771.407 660.775 769.641 658.63 768.597 656.119C767.553 653.608 767.278 650.844 767.805 648.176C768.333 645.509 769.64 643.057 771.561 641.133C773.482 639.208 775.931 637.897 778.597 637.365C781.264 636.832 784.029 637.103 786.542 638.143C789.054 639.182 791.202 640.944 792.713 643.204C794.225 645.465 795.031 648.123 795.031 650.842C795.033 654.484 793.589 657.977 791.016 660.555C788.444 663.133 784.954 664.584 781.312 664.591V664.586Z" fill="#F73B20"/>
<path d="M636.82 663.611H618.75V675.806H638.731C640.25 675.844 641.761 675.571 643.171 675.005C644.582 674.439 645.862 673.591 646.933 672.514C648.017 671.426 648.868 670.13 649.434 668.703C650 667.276 650.27 665.748 650.226 664.213V612.791H637.555V662.876C637.555 663.071 637.478 663.258 637.34 663.396C637.202 663.533 637.015 663.611 636.82 663.611Z" fill="#F73B20"/>
<path d="M695.277 628.063C691.58 625.952 687.388 624.86 683.131 624.898C679.746 624.862 676.388 625.502 673.254 626.781C670.12 628.059 667.272 629.951 664.879 632.345C662.485 634.738 660.593 637.586 659.315 640.72C658.036 643.854 657.396 647.212 657.432 650.597C657.371 655.183 658.527 659.703 660.783 663.696C663.039 667.689 666.314 671.013 670.274 673.327C674.233 675.632 678.741 676.827 683.322 676.786C688.442 676.786 693.023 675.806 696.943 673.934C700.863 672.063 703.803 669.333 705.66 665.923L705.885 665.512L696.243 659.705L695.998 660.151C694.852 662.11 693.126 663.665 691.059 664.6C688.712 665.741 686.132 666.323 683.523 666.3C679.731 666.3 676.521 665.198 673.988 663.018C671.582 660.945 670.01 658.074 669.304 654.477H706.635L706.713 654.081C707.017 652.301 707.153 650.496 707.12 648.691C707.176 644.506 706.105 640.382 704.021 636.753C701.937 633.123 698.915 630.12 695.272 628.058L695.277 628.063ZM674.326 637.588C676.688 635.821 679.579 634.904 682.528 634.986C685.491 634.904 688.39 635.857 690.726 637.681C692.757 639.276 694.197 641.504 694.817 644.012H669.887C670.675 641.467 672.224 639.225 674.326 637.588Z" fill="#F73B20"/>
<path d="M734.322 612.791H722.141V625.898H711.852V637.481H722.141V664.199C722.098 665.739 722.373 667.271 722.949 668.7C723.525 670.129 724.389 671.424 725.487 672.504C726.57 673.58 727.857 674.427 729.274 674.995C730.691 675.562 732.208 675.838 733.734 675.806H751.044V664.209H735.057C734.862 664.209 734.675 664.131 734.537 663.993C734.399 663.855 734.322 663.669 734.322 663.474V637.481H751.044V625.898H734.322V612.791Z" fill="#F73B20"/>
<path d="M856.008 629.191C854.921 628.107 853.624 627.256 852.197 626.69C850.77 626.124 849.243 625.854 847.708 625.898H814.008V675.807H826.091V638.216C826.091 638.021 826.168 637.834 826.306 637.696C826.444 637.559 826.631 637.481 826.825 637.481H846.385C846.58 637.481 846.767 637.559 846.905 637.696C847.043 637.834 847.12 638.021 847.12 638.216V675.807H859.301V637.491C859.345 635.956 859.075 634.429 858.509 633.002C857.943 631.575 857.092 630.278 856.008 629.191Z" fill="#F73B20"/>
</g>
</g>
<rect x="0.5" y="809.291" width="475.5" height="279" rx="15.5" fill="white"/>
<rect x="0.5" y="809.291" width="475.5" height="279" rx="15.5" stroke="black"/>
<g clip-path="url(#clip6_7329_31050)">
<g clip-path="url(#clip7_7329_31050)">
<path d="M280.812 928.898C275.676 928.898 270.655 930.421 266.385 933.275C262.114 936.128 258.786 940.184 256.82 944.929C254.855 949.674 254.341 954.896 255.343 959.933C256.345 964.97 258.818 969.598 262.45 973.229C266.082 976.861 270.709 979.334 275.746 980.336C280.783 981.338 286.005 980.824 290.75 978.859C295.495 976.893 299.551 973.565 302.404 969.294C305.258 965.024 306.781 960.003 306.781 954.867C306.781 947.98 304.045 941.374 299.175 936.504C294.305 931.634 287.699 928.898 280.812 928.898ZM280.812 968.586C278.093 968.591 275.433 967.789 273.17 966.282C270.907 964.775 269.141 962.63 268.097 960.119C267.053 957.608 266.778 954.844 267.305 952.176C267.833 949.509 269.14 947.057 271.061 945.133C272.982 943.208 275.431 941.897 278.097 941.365C280.764 940.832 283.529 941.103 286.042 942.143C288.554 943.182 290.702 944.944 292.213 947.204C293.725 949.465 294.531 952.123 294.531 954.842C294.533 958.484 293.089 961.977 290.516 964.555C287.944 967.133 284.454 968.584 280.812 968.591V968.586Z" fill="black"/>
<path d="M136.32 967.611H118.25V979.806H138.231C139.75 979.844 141.261 979.571 142.671 979.005C144.082 978.439 145.362 977.591 146.433 976.514C147.517 975.426 148.368 974.13 148.934 972.703C149.5 971.276 149.77 969.748 149.726 968.213V916.791H137.055V966.876C137.055 967.071 136.978 967.258 136.84 967.396C136.702 967.533 136.515 967.611 136.32 967.611Z" fill="black"/>
<path d="M194.777 932.063C191.08 929.952 186.888 928.86 182.631 928.898C179.246 928.862 175.888 929.502 172.754 930.781C169.62 932.059 166.772 933.951 164.379 936.345C161.985 938.738 160.093 941.586 158.815 944.72C157.536 947.854 156.896 951.212 156.932 954.597C156.871 959.183 158.027 963.703 160.283 967.696C162.539 971.689 165.814 975.013 169.774 977.327C173.733 979.632 178.241 980.827 182.822 980.786C187.942 980.786 192.523 979.806 196.443 977.934C200.363 976.063 203.303 973.333 205.16 969.923L205.385 969.512L195.743 963.705L195.498 964.151C194.352 966.11 192.626 967.665 190.559 968.6C188.212 969.741 185.632 970.323 183.023 970.3C179.231 970.3 176.021 969.198 173.488 967.018C171.082 964.945 169.51 962.074 168.804 958.477H206.135L206.213 958.081C206.517 956.301 206.653 954.496 206.62 952.691C206.676 948.506 205.605 944.382 203.521 940.753C201.437 937.123 198.415 934.12 194.772 932.058L194.777 932.063ZM173.826 941.588C176.188 939.821 179.079 938.904 182.028 938.986C184.991 938.904 187.89 939.857 190.226 941.681C192.257 943.276 193.697 945.504 194.317 948.012H169.387C170.175 945.467 171.724 943.225 173.826 941.588Z" fill="black"/>
<path d="M233.822 916.791H221.641V929.898H211.352V941.481H221.641V968.199C221.598 969.739 221.873 971.271 222.449 972.7C223.025 974.129 223.889 975.424 224.987 976.504C226.07 977.58 227.357 978.427 228.774 978.995C230.191 979.562 231.708 979.838 233.234 979.806H250.544V968.209H234.557C234.362 968.209 234.175 968.131 234.037 967.993C233.899 967.855 233.822 967.669 233.822 967.474V941.481H250.544V929.898H233.822V916.791Z" fill="black"/>
<path d="M355.508 933.191C354.421 932.107 353.124 931.256 351.697 930.69C350.27 930.124 348.743 929.854 347.208 929.898H313.508V979.807H325.591V942.216C325.591 942.021 325.668 941.834 325.806 941.696C325.944 941.559 326.131 941.481 326.325 941.481H345.885C346.08 941.481 346.267 941.559 346.405 941.696C346.543 941.834 346.62 942.021 346.62 942.216V979.807H358.801V941.491C358.845 939.956 358.575 938.429 358.009 937.002C357.443 935.575 356.592 934.278 355.508 933.191Z" fill="black"/>
</g>
</g>
<rect x="500.5" y="808.791" width="476.5" height="280" rx="16" fill="black"/>
<g clip-path="url(#clip8_7329_31050)">
<g clip-path="url(#clip9_7329_31050)">
<path d="M781.312 928.898C776.176 928.898 771.155 930.421 766.885 933.275C762.614 936.128 759.286 940.184 757.32 944.929C755.355 949.674 754.841 954.896 755.843 959.933C756.845 964.97 759.318 969.598 762.95 973.229C766.582 976.861 771.209 979.334 776.246 980.336C781.283 981.338 786.505 980.824 791.25 978.859C795.995 976.893 800.051 973.565 802.904 969.294C805.758 965.024 807.281 960.003 807.281 954.867C807.281 947.98 804.545 941.374 799.675 936.504C794.805 931.634 788.199 928.898 781.312 928.898ZM781.312 968.586C778.593 968.591 775.933 967.789 773.67 966.282C771.407 964.775 769.641 962.63 768.597 960.119C767.553 957.608 767.278 954.844 767.805 952.176C768.333 949.509 769.64 947.057 771.561 945.133C773.482 943.208 775.931 941.897 778.597 941.365C781.264 940.832 784.029 941.103 786.542 942.143C789.054 943.182 791.202 944.944 792.713 947.204C794.225 949.465 795.031 952.123 795.031 954.842C795.033 958.484 793.589 961.977 791.016 964.555C788.444 967.133 784.954 968.584 781.312 968.591V968.586Z" fill="white"/>
<path d="M636.82 967.611H618.75V979.806H638.731C640.25 979.844 641.761 979.571 643.171 979.005C644.582 978.439 645.862 977.591 646.933 976.514C648.017 975.426 648.868 974.13 649.434 972.703C650 971.276 650.27 969.748 650.226 968.213V916.791H637.555V966.876C637.555 967.071 637.478 967.258 637.34 967.396C637.202 967.533 637.015 967.611 636.82 967.611Z" fill="white"/>
<path d="M695.277 932.063C691.58 929.952 687.388 928.86 683.131 928.898C679.746 928.862 676.388 929.502 673.254 930.781C670.12 932.059 667.272 933.951 664.879 936.345C662.485 938.738 660.593 941.586 659.315 944.72C658.036 947.854 657.396 951.212 657.432 954.597C657.371 959.183 658.527 963.703 660.783 967.696C663.039 971.689 666.314 975.013 670.274 977.327C674.233 979.632 678.741 980.827 683.322 980.786C688.442 980.786 693.023 979.806 696.943 977.934C700.863 976.063 703.803 973.333 705.66 969.923L705.885 969.512L696.243 963.705L695.998 964.151C694.852 966.11 693.126 967.665 691.059 968.6C688.712 969.741 686.132 970.323 683.523 970.3C679.731 970.3 676.521 969.198 673.988 967.018C671.582 964.945 670.01 962.074 669.304 958.477H706.635L706.713 958.081C707.017 956.301 707.153 954.496 707.12 952.691C707.176 948.506 706.105 944.382 704.021 940.753C701.937 937.123 698.915 934.12 695.272 932.058L695.277 932.063ZM674.326 941.588C676.688 939.821 679.579 938.904 682.528 938.986C685.491 938.904 688.39 939.857 690.726 941.681C692.757 943.276 694.197 945.504 694.817 948.012H669.887C670.675 945.467 672.224 943.225 674.326 941.588Z" fill="white"/>
<path d="M734.322 916.791H722.141V929.898H711.852V941.481H722.141V968.199C722.098 969.739 722.373 971.271 722.949 972.7C723.525 974.129 724.389 975.424 725.487 976.504C726.57 977.58 727.857 978.427 729.274 978.995C730.691 979.562 732.208 979.838 733.734 979.806H751.044V968.209H735.057C734.862 968.209 734.675 968.131 734.537 967.993C734.399 967.855 734.322 967.669 734.322 967.474V941.481H751.044V929.898H734.322V916.791Z" fill="white"/>
<path d="M856.008 933.191C854.921 932.107 853.624 931.256 852.197 930.69C850.77 930.124 849.243 929.854 847.708 929.898H814.008V979.807H826.091V942.216C826.091 942.021 826.168 941.834 826.306 941.696C826.444 941.559 826.631 941.481 826.825 941.481H846.385C846.58 941.481 846.767 941.559 846.905 941.696C847.043 941.834 847.12 942.021 847.12 942.216V979.807H859.301V941.491C859.345 939.956 859.075 938.429 858.509 937.002C857.943 935.575 857.092 934.278 856.008 933.191Z" fill="white"/>
</g>
</g>
<defs>
<clipPath id="clip0_7329_31050">
<rect width="381.25" height="100" fill="white" transform="translate(297.875 190.791)"/>
</clipPath>
<clipPath id="clip1_7329_31050">
<rect width="375.861" height="100" fill="white" transform="translate(301 190.791)"/>
</clipPath>
<clipPath id="clip2_7329_31050">
<rect width="244" height="64" fill="white" transform="translate(116.25 612.791)"/>
</clipPath>
<clipPath id="clip3_7329_31050">
<rect width="240.551" height="64" fill="white" transform="translate(118.25 612.791)"/>
</clipPath>
<clipPath id="clip4_7329_31050">
<rect width="244" height="64" fill="white" transform="translate(616.75 612.791)"/>
</clipPath>
<clipPath id="clip5_7329_31050">
<rect width="240.551" height="64" fill="white" transform="translate(618.75 612.791)"/>
</clipPath>
<clipPath id="clip6_7329_31050">
<rect width="244" height="64" fill="white" transform="translate(116.25 916.791)"/>
</clipPath>
<clipPath id="clip7_7329_31050">
<rect width="240.551" height="64" fill="white" transform="translate(118.25 916.791)"/>
</clipPath>
<clipPath id="clip8_7329_31050">
<rect width="244" height="64" fill="white" transform="translate(616.75 916.791)"/>
</clipPath>
<clipPath id="clip9_7329_31050">
<rect width="240.551" height="64" fill="white" transform="translate(618.75 916.791)"/>
</clipPath>
</defs>
</svg>
