<svg width="977" height="429" viewBox="0 0 977 429" fill="none" xmlns="http://www.w3.org/2000/svg">
<rect x="100.387" y="64.7615" width="298.727" height="298.727" stroke="#F96853" stroke-width="0.773904"/>
<rect x="100.387" y="64.7615" width="298.727" height="298.727" rx="149.364" stroke="#F96853" stroke-width="0.773904"/>
<rect x="100.387" y="64.7615" width="298.727" height="298.727" rx="53.7864" stroke="#F96853" stroke-width="0.773904"/>
<path d="M250.579 321.466C296.272 321.466 333.314 314.871 333.314 306.735C333.314 298.599 296.272 292.003 250.579 292.003C204.886 292.003 167.844 298.599 167.844 306.735C167.844 314.871 204.886 321.466 250.579 321.466Z" fill="#FBA498"/>
<path d="M250.579 300.102C296.272 300.102 333.314 286.047 333.314 268.708C333.314 251.369 296.272 237.313 250.579 237.313C204.886 237.313 167.844 251.369 167.844 268.708C167.844 286.047 204.886 300.102 250.579 300.102Z" fill="#FA8270"/>
<path d="M250.579 272.867C296.272 272.867 333.314 235.825 333.314 190.132C333.314 144.438 296.272 107.396 250.579 107.396C204.886 107.396 167.844 144.438 167.844 190.132C167.844 235.825 204.886 272.867 250.579 272.867Z" fill="#F73B20"/>
<rect x="497.785" y="303.511" width="61.1385" height="61.1385" fill="white"/>
<path d="M519.062 350.307C514.625 350.85 511.715 351.761 511.715 352.791C511.715 354.455 519.29 355.803 528.636 355.803C537.983 355.803 545.558 354.455 545.558 352.791C545.558 351.759 542.648 350.85 538.21 350.307C535.487 351.018 532.19 351.434 528.636 351.434C525.082 351.434 521.785 351.018 519.062 350.307Z" fill="black"/>
<path d="M545.558 345.014C545.558 343.301 543.79 341.746 540.908 340.594C537.825 343.84 533.467 345.864 528.636 345.864C523.805 345.864 519.448 343.84 516.365 340.594C513.484 341.744 511.715 343.301 511.715 345.014C511.715 347.211 514.625 349.15 519.062 350.308C521.785 349.975 525.082 349.778 528.636 349.778C532.19 349.778 535.487 349.973 538.21 350.308C542.648 349.15 545.558 347.211 545.558 345.014Z" fill="black"/>
<path d="M540.908 340.594C543.788 337.56 545.558 333.46 545.558 328.944C545.558 319.599 537.983 312.024 528.636 312.024C519.29 312.024 511.715 319.599 511.715 328.944C511.715 333.46 513.482 337.56 516.365 340.594C519.448 339.362 523.805 338.594 528.636 338.594C533.467 338.594 537.825 339.362 540.908 340.594Z" fill="black"/>
<rect x="497.785" y="223.799" width="61.1385" height="61.1385" fill="black"/>
<path d="M519.062 270.595C514.625 271.138 511.715 272.049 511.715 273.079C511.715 274.743 519.29 276.091 528.636 276.091C537.983 276.091 545.558 274.743 545.558 273.079C545.558 272.047 542.648 271.138 538.21 270.595C535.487 271.306 532.19 271.722 528.636 271.722C525.082 271.722 521.785 271.306 519.062 270.595Z" fill="white"/>
<path d="M545.558 265.302C545.558 263.589 543.79 262.034 540.908 260.882C537.825 264.128 533.467 266.152 528.636 266.152C523.805 266.152 519.448 264.128 516.365 260.882C513.484 262.032 511.715 263.589 511.715 265.302C511.715 267.499 514.625 269.438 519.062 270.596C521.785 270.263 525.082 270.066 528.636 270.066C532.19 270.066 535.487 270.261 538.21 270.596C542.648 269.438 545.558 267.499 545.558 265.302Z" fill="white"/>
<path d="M540.908 260.882C543.788 257.848 545.558 253.747 545.558 249.232C545.558 239.886 537.983 232.312 528.636 232.312C519.29 232.312 511.715 239.886 511.715 249.232C511.715 253.747 513.482 257.848 516.365 260.882C519.448 259.65 523.805 258.882 528.636 258.882C533.467 258.882 537.825 259.65 540.908 260.882Z" fill="white"/>
<rect x="497.785" y="64.3745" width="61.1385" height="61.1385" fill="#F73B20"/>
<path d="M528.635 116.953C537.98 116.953 545.555 115.605 545.555 113.941C545.555 112.277 537.98 110.928 528.635 110.928C519.29 110.928 511.715 112.277 511.715 113.941C511.715 115.605 519.29 116.953 528.635 116.953Z" fill="#FBA498"/>
<path d="M528.635 112.583C537.98 112.583 545.555 109.708 545.555 106.162C545.555 102.616 537.98 99.7419 528.635 99.7419C519.29 99.7419 511.715 102.616 511.715 106.162C511.715 109.708 519.29 112.583 528.635 112.583Z" fill="#FDCBC4"/>
<path d="M528.635 107.013C537.98 107.013 545.555 99.438 545.555 90.0933C545.555 80.7485 537.98 73.1731 528.635 73.1731C519.29 73.1731 511.715 80.7485 511.715 90.0933C511.715 99.438 519.29 107.013 528.635 107.013Z" fill="#FFF6F5"/>
<rect x="656.438" y="64.3745" width="61.1385" height="61.1385" rx="15.4781" fill="#F73B20"/>
<path d="M687.287 116.953C696.632 116.953 704.208 115.605 704.208 113.941C704.208 112.277 696.632 110.928 687.287 110.928C677.943 110.928 670.367 112.277 670.367 113.941C670.367 115.605 677.943 116.953 687.287 116.953Z" fill="#FBA498"/>
<path d="M687.287 112.583C696.632 112.583 704.208 109.708 704.208 106.162C704.208 102.616 696.632 99.7419 687.287 99.7419C677.943 99.7419 670.367 102.616 670.367 106.162C670.367 109.708 677.943 112.583 687.287 112.583Z" fill="#FDCBC4"/>
<path d="M687.287 107.013C696.632 107.013 704.208 99.438 704.208 90.0933C704.208 80.7485 696.632 73.1731 687.287 73.1731C677.943 73.1731 670.367 80.7485 670.367 90.0933C670.367 99.438 677.943 107.013 687.287 107.013Z" fill="#FFF6F5"/>
<rect x="815.863" y="64.3745" width="61.1385" height="61.1385" rx="30.5692" fill="#F73B20"/>
<path d="M846.713 116.953C856.058 116.953 863.633 115.605 863.633 113.941C863.633 112.277 856.058 110.928 846.713 110.928C837.368 110.928 829.793 112.277 829.793 113.941C829.793 115.605 837.368 116.953 846.713 116.953Z" fill="#FBA498"/>
<path d="M846.713 112.583C856.058 112.583 863.633 109.708 863.633 106.162C863.633 102.616 856.058 99.7419 846.713 99.7419C837.368 99.7419 829.793 102.616 829.793 106.162C829.793 109.708 837.368 112.583 846.713 112.583Z" fill="#FDCBC4"/>
<path d="M846.713 107.013C856.058 107.013 863.633 99.438 863.633 90.0933C863.633 80.7485 856.058 73.1731 846.713 73.1731C837.368 73.1731 829.793 80.7485 829.793 90.0933C829.793 99.438 837.368 107.013 846.713 107.013Z" fill="#FFF6F5"/>
<rect x="497.785" y="144.087" width="61.1385" height="61.1385" fill="white"/>
<path d="M528.635 196.666C537.98 196.666 545.555 195.317 545.555 193.653C545.555 191.989 537.98 190.64 528.635 190.64C519.29 190.64 511.715 191.989 511.715 193.653C511.715 195.317 519.29 196.666 528.635 196.666Z" fill="#FBA498"/>
<path d="M528.635 192.295C537.98 192.295 545.555 189.421 545.555 185.875C545.555 182.329 537.98 179.454 528.635 179.454C519.29 179.454 511.715 182.329 511.715 185.875C511.715 189.421 519.29 192.295 528.635 192.295Z" fill="#FA8270"/>
<path d="M528.635 186.726C537.98 186.726 545.555 179.15 545.555 169.806C545.555 160.461 537.98 152.885 528.635 152.885C519.29 152.885 511.715 160.461 511.715 169.806C511.715 179.15 519.29 186.726 528.635 186.726Z" fill="#F73B20"/>
<rect x="656.438" y="303.511" width="61.1385" height="61.1385" rx="15.4781" fill="white"/>
<path d="M677.715 350.308C673.277 350.851 670.367 351.761 670.367 352.791C670.367 354.455 677.942 355.804 687.289 355.804C696.635 355.804 704.21 354.455 704.21 352.791C704.21 351.759 701.3 350.851 696.863 350.308C694.14 351.018 690.843 351.434 687.289 351.434C683.735 351.434 680.438 351.018 677.715 350.308Z" fill="black"/>
<path d="M704.21 345.014C704.21 343.301 702.443 341.746 699.56 340.594C696.477 343.841 692.119 345.865 687.289 345.865C682.458 345.865 678.1 343.841 675.017 340.594C672.136 341.744 670.367 343.301 670.367 345.014C670.367 347.211 673.277 349.15 677.715 350.308C680.438 349.975 683.735 349.778 687.289 349.778C690.843 349.778 694.14 349.973 696.863 350.308C701.3 349.15 704.21 347.211 704.21 345.014Z" fill="black"/>
<path d="M699.56 340.595C702.441 337.561 704.21 333.46 704.21 328.945C704.21 319.599 696.635 312.024 687.289 312.024C677.942 312.024 670.367 319.599 670.367 328.945C670.367 333.46 672.134 337.561 675.017 340.595C678.1 339.363 682.458 338.594 687.289 338.594C692.119 338.594 696.477 339.363 699.56 340.595Z" fill="black"/>
<rect x="656.438" y="223.799" width="61.1385" height="61.1385" rx="15.4781" fill="black"/>
<path d="M677.715 270.595C673.277 271.138 670.367 272.049 670.367 273.079C670.367 274.743 677.942 276.091 687.289 276.091C696.635 276.091 704.21 274.743 704.21 273.079C704.21 272.047 701.3 271.138 696.863 270.595C694.14 271.306 690.843 271.722 687.289 271.722C683.735 271.722 680.438 271.306 677.715 270.595Z" fill="white"/>
<path d="M704.21 265.302C704.21 263.589 702.443 262.034 699.56 260.882C696.477 264.128 692.119 266.152 687.289 266.152C682.458 266.152 678.1 264.128 675.017 260.882C672.136 262.032 670.367 263.589 670.367 265.302C670.367 267.499 673.277 269.437 677.715 270.595C680.438 270.263 683.735 270.066 687.289 270.066C690.843 270.066 694.14 270.261 696.863 270.595C701.3 269.437 704.21 267.499 704.21 265.302Z" fill="white"/>
<path d="M699.56 260.882C702.441 257.848 704.21 253.747 704.21 249.232C704.21 239.886 696.635 232.312 687.289 232.312C677.942 232.312 670.367 239.886 670.367 249.232C670.367 253.747 672.134 257.848 675.017 260.882C678.1 259.65 682.458 258.882 687.289 258.882C692.119 258.882 696.477 259.65 699.56 260.882Z" fill="white"/>
<rect x="656.438" y="144.087" width="61.1385" height="61.1385" rx="15.4781" fill="white"/>
<path d="M687.287 196.666C696.632 196.666 704.208 195.317 704.208 193.653C704.208 191.989 696.632 190.64 687.287 190.64C677.943 190.64 670.367 191.989 670.367 193.653C670.367 195.317 677.943 196.666 687.287 196.666Z" fill="#FBA498"/>
<path d="M687.287 192.295C696.632 192.295 704.208 189.421 704.208 185.875C704.208 182.329 696.632 179.454 687.287 179.454C677.943 179.454 670.367 182.329 670.367 185.875C670.367 189.421 677.943 192.295 687.287 192.295Z" fill="#FA8270"/>
<path d="M687.287 186.726C696.632 186.726 704.208 179.15 704.208 169.805C704.208 160.461 696.632 152.885 687.287 152.885C677.943 152.885 670.367 160.461 670.367 169.805C670.367 179.15 677.943 186.726 687.287 186.726Z" fill="#F73B20"/>
<rect x="815.863" y="303.511" width="61.1385" height="61.1385" rx="30.5692" fill="white"/>
<path d="M837.14 350.307C832.703 350.85 829.793 351.761 829.793 352.791C829.793 354.455 837.368 355.803 846.714 355.803C856.061 355.803 863.636 354.455 863.636 352.791C863.636 351.759 860.726 350.85 856.288 350.307C853.565 351.018 850.268 351.434 846.714 351.434C843.16 351.434 839.863 351.018 837.14 350.307Z" fill="black"/>
<path d="M863.636 345.015C863.636 343.302 861.869 341.747 858.986 340.595C855.903 343.842 851.545 345.866 846.714 345.866C841.884 345.866 837.526 343.842 834.443 340.595C831.562 341.745 829.793 343.302 829.793 345.015C829.793 347.212 832.703 349.151 837.14 350.309C839.863 349.976 843.16 349.779 846.714 349.779C850.268 349.779 853.565 349.974 856.288 350.309C860.726 349.151 863.636 347.212 863.636 345.015Z" fill="black"/>
<path d="M858.986 340.595C861.867 337.561 863.636 333.46 863.636 328.945C863.636 319.599 856.061 312.024 846.714 312.024C837.368 312.024 829.793 319.599 829.793 328.945C829.793 333.46 831.56 337.561 834.443 340.595C837.526 339.363 841.884 338.594 846.714 338.594C851.545 338.594 855.903 339.363 858.986 340.595Z" fill="black"/>
<rect x="815.863" y="223.799" width="61.1385" height="61.1385" rx="30.5692" fill="black"/>
<path d="M837.14 270.595C832.703 271.138 829.793 272.049 829.793 273.078C829.793 274.742 837.368 276.091 846.714 276.091C856.061 276.091 863.636 274.742 863.636 273.078C863.636 272.047 860.726 271.138 856.288 270.595C853.565 271.305 850.268 271.722 846.714 271.722C843.16 271.722 839.863 271.305 837.14 270.595Z" fill="white"/>
<path d="M863.636 265.303C863.636 263.59 861.869 262.035 858.986 260.883C855.903 264.129 851.545 266.153 846.714 266.153C841.884 266.153 837.526 264.129 834.443 260.883C831.562 262.033 829.793 263.59 829.793 265.303C829.793 267.5 832.703 269.438 837.14 270.596C839.863 270.264 843.16 270.067 846.714 270.067C850.268 270.067 853.565 270.262 856.288 270.596C860.726 269.438 863.636 267.5 863.636 265.303Z" fill="white"/>
<path d="M858.986 260.882C861.867 257.848 863.636 253.747 863.636 249.232C863.636 239.886 856.061 232.312 846.714 232.312C837.368 232.312 829.793 239.886 829.793 249.232C829.793 253.747 831.56 257.848 834.443 260.882C837.526 259.65 841.884 258.882 846.714 258.882C851.545 258.882 855.903 259.65 858.986 260.882Z" fill="white"/>
<rect x="815.863" y="144.087" width="61.1385" height="61.1385" rx="30.5692" fill="white"/>
<path d="M846.713 196.666C856.058 196.666 863.633 195.317 863.633 193.653C863.633 191.989 856.058 190.64 846.713 190.64C837.368 190.64 829.793 191.989 829.793 193.653C829.793 195.317 837.368 196.666 846.713 196.666Z" fill="#FBA498"/>
<path d="M846.713 192.295C856.058 192.295 863.633 189.421 863.633 185.875C863.633 182.329 856.058 179.454 846.713 179.454C837.368 179.454 829.793 182.329 829.793 185.875C829.793 189.421 837.368 192.295 846.713 192.295Z" fill="#FA8270"/>
<path d="M846.713 186.726C856.058 186.726 863.633 179.15 863.633 169.805C863.633 160.461 856.058 152.885 846.713 152.885C837.368 152.885 829.793 160.461 829.793 169.805C829.793 179.15 837.368 186.726 846.713 186.726Z" fill="#F73B20"/>
</svg>
