<svg width="977" height="429" viewBox="0 0 977 429" fill="none" xmlns="http://www.w3.org/2000/svg">
<rect width="977" height="428" transform="translate(0 0.603027)" fill="#FFF6F5"/>
<g clip-path="url(#clip0_7379_26811)">
<g clip-path="url(#clip1_7379_26811)">
<path d="M493.945 42.1165C493.303 42.1165 492.676 42.3068 492.142 42.6635C491.608 43.0202 491.192 43.5272 490.946 44.1203C490.701 44.7134 490.636 45.3661 490.762 45.9958C490.887 46.6255 491.196 47.2039 491.65 47.6578C492.104 48.1118 492.682 48.4209 493.312 48.5462C493.942 48.6714 494.594 48.6072 495.187 48.3615C495.781 48.1158 496.288 47.6997 496.644 47.1659C497.001 46.6321 497.191 46.0045 497.191 45.3625C497.191 44.5016 496.849 43.676 496.241 43.0672C495.632 42.4584 494.806 42.1165 493.945 42.1165ZM493.945 47.0774C493.605 47.078 493.273 46.9778 492.99 46.7894C492.707 46.601 492.486 46.3329 492.356 46.019C492.225 45.7051 492.191 45.3596 492.257 45.0262C492.323 44.6927 492.486 44.3863 492.726 44.1458C492.966 43.9052 493.273 43.7413 493.606 43.6747C493.939 43.6082 494.285 43.642 494.599 43.772C494.913 43.9019 495.182 44.1221 495.37 44.4047C495.559 44.6873 495.66 45.0195 495.66 45.3594C495.66 45.8147 495.48 46.2513 495.158 46.5735C494.837 46.8958 494.4 47.0772 493.945 47.078V47.0774Z" fill="#F73B20"/>
<path d="M475.884 46.9555H473.625V48.4799H476.123C476.313 48.4846 476.501 48.4506 476.678 48.3798C476.854 48.309 477.014 48.203 477.148 48.0683C477.283 47.9324 477.39 47.7704 477.461 47.592C477.531 47.4136 477.565 47.2227 477.559 47.0308V40.603H475.976V46.8636C475.976 46.888 475.966 46.9114 475.949 46.9286C475.931 46.9458 475.908 46.9555 475.884 46.9555Z" fill="#F73B20"/>
<path d="M483.192 42.512C482.73 42.2482 482.206 42.1116 481.674 42.1164C481.25 42.1119 480.831 42.1919 480.439 42.3517C480.047 42.5116 479.691 42.748 479.392 43.0472C479.093 43.3464 478.856 43.7023 478.697 44.0941C478.537 44.4859 478.457 44.9057 478.461 45.3288C478.454 45.902 478.598 46.467 478.88 46.9662C479.162 47.4653 479.572 47.8807 480.066 48.17C480.561 48.4581 481.125 48.6075 481.697 48.6024C482.338 48.6024 482.91 48.4799 483.4 48.2459C483.89 48.012 484.258 47.6708 484.49 47.2445L484.518 47.1931L483.313 46.4673L483.282 46.5231C483.139 46.768 482.923 46.9623 482.665 47.0792C482.371 47.2218 482.049 47.2946 481.723 47.2917C481.249 47.2917 480.847 47.1539 480.531 46.8814C480.23 46.6223 480.033 46.2634 479.945 45.8138H484.612L484.621 45.7642C484.659 45.5417 484.676 45.3162 484.672 45.0905C484.679 44.5674 484.545 44.0519 484.285 43.5982C484.024 43.1445 483.647 42.7691 483.191 42.5114L483.192 42.512ZM480.573 43.7027C480.868 43.4817 481.23 43.3671 481.598 43.3775C481.969 43.3671 482.331 43.4862 482.623 43.7143C482.877 43.9137 483.057 44.1922 483.134 44.5056H480.018C480.117 44.1875 480.31 43.9072 480.573 43.7027Z" fill="#F73B20"/>
<path d="M488.07 40.603H486.548V42.2414H485.262V43.6892H486.548V47.029C486.543 47.2215 486.577 47.413 486.649 47.5916C486.721 47.7702 486.829 47.9321 486.966 48.0671C487.101 48.2017 487.262 48.3075 487.44 48.3785C487.617 48.4494 487.806 48.4839 487.997 48.4799H490.161V47.0302H488.162C488.138 47.0302 488.115 47.0205 488.097 47.0033C488.08 46.9861 488.07 46.9627 488.07 46.9383V43.6892H490.161V42.2414H488.07V40.603Z" fill="#F73B20"/>
<path d="M503.281 42.6529C503.145 42.5174 502.983 42.411 502.805 42.3402C502.627 42.2695 502.436 42.2358 502.244 42.2413H498.031V48.4799H499.542V43.781C499.542 43.7567 499.551 43.7333 499.568 43.7161C499.586 43.6988 499.609 43.6892 499.633 43.6892H502.078C502.103 43.6892 502.126 43.6988 502.143 43.7161C502.161 43.7333 502.17 43.7567 502.17 43.781V48.4799H503.693V43.6904C503.698 43.4986 503.665 43.3076 503.594 43.1292C503.523 42.9509 503.417 42.7888 503.281 42.6529Z" fill="#F73B20"/>
</g>
</g>
<path d="M488.979 68.2495C488.783 68.0542 488.467 68.0542 488.271 68.2495L485.089 71.4315C484.894 71.6267 484.894 71.9433 485.089 72.1386C485.285 72.3338 485.601 72.3338 485.797 72.1386L488.625 69.3101L491.453 72.1386C491.649 72.3338 491.965 72.3338 492.161 72.1386C492.356 71.9433 492.356 71.6267 492.161 71.4315L488.979 68.2495ZM488.271 268.957C488.467 269.152 488.783 269.152 488.979 268.957L492.161 265.775C492.356 265.579 492.356 265.263 492.161 265.067C491.965 264.872 491.649 264.872 491.453 265.067L488.625 267.896L485.797 265.067C485.601 264.872 485.285 264.872 485.089 265.067C484.894 265.263 484.894 265.579 485.089 265.775L488.271 268.957ZM488.125 68.603L488.125 268.603L489.125 268.603L489.125 68.603L488.125 68.603Z" fill="#F73B20"/>
<g clip-path="url(#clip2_7379_26811)">
<g clip-path="url(#clip3_7379_26811)">
<path d="M555.13 307.521C547.105 307.521 539.26 309.9 532.588 314.359C525.915 318.817 520.714 325.154 517.643 332.569C514.572 339.983 513.769 348.141 515.334 356.012C516.9 363.883 520.764 371.113 526.439 376.788C532.114 382.462 539.344 386.327 547.215 387.892C555.085 389.458 563.244 388.654 570.658 385.583C578.072 382.512 584.409 377.312 588.868 370.639C593.326 363.966 595.706 356.121 595.706 348.096C595.706 337.335 591.431 327.014 583.822 319.405C576.212 311.795 565.892 307.521 555.13 307.521ZM555.13 369.532C550.882 369.54 546.726 368.287 543.189 365.932C539.653 363.577 536.895 360.226 535.263 356.302C533.632 352.379 533.201 348.06 534.026 343.892C534.85 339.724 536.892 335.894 539.894 332.887C542.896 329.88 546.722 327.831 550.889 326.999C555.055 326.167 559.375 326.59 563.301 328.214C567.227 329.839 570.584 332.591 572.945 336.123C575.306 339.656 576.567 343.809 576.567 348.058C576.569 353.748 574.312 359.206 570.293 363.234C566.274 367.262 560.821 369.53 555.13 369.54V369.532Z" fill="#F73B20"/>
<path d="M329.36 368.009H301.125V387.064H332.345C334.719 387.123 337.08 386.697 339.283 385.813C341.487 384.928 343.487 383.603 345.161 381.92C346.855 380.221 348.184 378.195 349.069 375.965C349.954 373.735 350.374 371.348 350.306 368.951V288.603H330.508V366.861C330.508 367.165 330.387 367.457 330.172 367.673C329.956 367.888 329.664 368.009 329.36 368.009Z" fill="#F73B20"/>
<path d="M420.699 312.466C414.922 309.167 408.373 307.461 401.721 307.52C396.432 307.464 391.185 308.464 386.288 310.462C381.391 312.46 376.942 315.416 373.202 319.156C369.462 322.896 366.506 327.345 364.508 332.242C362.51 337.139 361.51 342.386 361.566 347.675C361.47 354.841 363.277 361.904 366.802 368.143C370.327 374.382 375.445 379.575 381.632 383.19C387.818 386.792 394.861 388.659 402.019 388.595C410.02 388.595 417.178 387.064 423.302 384.14C429.427 381.215 434.021 376.951 436.922 371.622L437.274 370.979L422.208 361.907L421.825 362.604C420.035 365.665 417.339 368.094 414.108 369.555C410.441 371.338 406.411 372.248 402.333 372.212C396.408 372.212 391.393 370.489 387.435 367.083C383.676 363.844 381.219 359.358 380.116 353.738H438.446L438.568 353.118C439.042 350.337 439.255 347.518 439.204 344.697C439.29 338.158 437.618 331.715 434.361 326.043C431.105 320.372 426.383 315.68 420.692 312.458L420.699 312.466ZM387.963 327.349C391.654 324.587 396.171 323.154 400.779 323.284C405.408 323.155 409.938 324.644 413.587 327.494C416.761 329.987 419.011 333.468 419.98 337.386H381.027C382.258 333.409 384.679 329.906 387.963 327.349Z" fill="#F73B20"/>
<path d="M481.707 288.603H462.675V309.082H446.598V327.181H462.675V368.928C462.608 371.334 463.038 373.728 463.937 375.961C464.837 378.193 466.187 380.217 467.904 381.904C469.595 383.586 471.607 384.91 473.821 385.796C476.034 386.683 478.404 387.114 480.788 387.064H507.836V368.943H482.856C482.551 368.943 482.259 368.822 482.043 368.607C481.828 368.391 481.707 368.099 481.707 367.795V327.181H507.836V309.082H481.707V288.603Z" fill="#F73B20"/>
<path d="M671.84 314.227C670.142 312.533 668.115 311.204 665.886 310.319C663.656 309.434 661.269 309.014 658.871 309.082H606.215V387.064H625.094V328.329C625.094 328.024 625.215 327.732 625.43 327.517C625.646 327.301 625.938 327.18 626.242 327.18H656.804C657.109 327.18 657.401 327.301 657.616 327.517C657.832 327.732 657.953 328.024 657.953 328.329V387.064H676.985V327.196C677.054 324.798 676.633 322.411 675.748 320.182C674.864 317.952 673.534 315.926 671.84 314.227Z" fill="#F73B20"/>
</g>
</g>
<defs>
<clipPath id="clip0_7379_26811">
<rect width="30.5" height="8" fill="white" transform="translate(473.375 40.603)"/>
</clipPath>
<clipPath id="clip1_7379_26811">
<rect width="30.0689" height="8" fill="white" transform="translate(473.625 40.603)"/>
</clipPath>
<clipPath id="clip2_7379_26811">
<rect width="381.25" height="100" fill="white" transform="translate(298 288.603)"/>
</clipPath>
<clipPath id="clip3_7379_26811">
<rect width="375.861" height="100" fill="white" transform="translate(301.125 288.603)"/>
</clipPath>
</defs>
</svg>
