<svg width="977" height="402" viewBox="0 0 977 402" fill="none" xmlns="http://www.w3.org/2000/svg">
<rect width="977" height="401" transform="translate(0 0.791504)" fill="#FFF6F5"/>
<path d="M587.41 149.749C577.801 149.749 568.407 152.599 560.417 157.937C552.427 163.276 546.2 170.864 542.523 179.742C538.845 188.62 537.883 198.389 539.758 207.814C541.633 217.239 546.26 225.896 553.055 232.691C559.85 239.486 568.507 244.113 577.932 245.988C587.356 247.862 597.125 246.9 606.003 243.223C614.881 239.545 622.469 233.318 627.808 225.328C633.147 217.338 635.996 207.945 635.996 198.335C635.996 185.449 630.878 173.091 621.766 163.98C612.654 154.868 600.296 149.749 587.41 149.749ZM587.41 224.003C582.323 224.012 577.347 222.512 573.112 219.692C568.877 216.872 565.574 212.859 563.621 208.161C561.668 203.464 561.152 198.292 562.139 193.301C563.126 188.31 565.571 183.724 569.166 180.123C572.76 176.522 577.342 174.069 582.331 173.073C587.32 172.077 592.493 172.583 597.194 174.528C601.895 176.473 605.914 179.769 608.742 183.999C611.569 188.228 613.078 193.202 613.078 198.289C613.081 205.103 610.379 211.639 605.566 216.462C600.754 221.285 594.224 224 587.41 224.012V224.003Z" fill="#FBA498"/>
<line x1="538.595" y1="360.583" x2="538.595" y2="41.583" stroke="#F96853" stroke-width="0.809769" stroke-dasharray="1.62 1.62"/>
<path d="M488.313 42.1539C478.703 42.1539 469.31 45.0034 461.32 50.3422C453.33 55.6809 447.102 63.269 443.425 72.1469C439.748 81.0249 438.785 90.7939 440.66 100.219C442.535 109.643 447.162 118.301 453.957 125.096C460.752 131.89 469.409 136.518 478.834 138.393C488.259 140.267 498.028 139.305 506.906 135.628C515.784 131.95 523.372 125.723 528.711 117.733C534.049 109.743 536.899 100.349 536.899 90.74C536.899 77.8542 531.78 65.4961 522.668 56.3845C513.557 47.2728 501.199 42.1539 488.313 42.1539ZM488.313 116.408C483.225 116.417 478.249 114.917 474.014 112.097C469.78 109.277 466.477 105.264 464.523 100.566C462.57 95.8685 462.054 90.6968 463.041 85.7058C464.028 80.7148 466.474 76.1287 470.068 72.5279C473.662 68.9272 478.244 66.4736 483.233 65.4777C488.223 64.4818 493.395 64.9884 498.097 66.9332C502.798 68.8781 506.817 72.1739 509.644 76.4035C512.472 80.6331 513.981 85.6065 513.981 90.6942C513.983 97.5076 511.281 104.043 506.469 108.866C501.656 113.689 495.126 116.405 488.313 116.417V116.408Z" fill="#FBA498"/>
<path d="M488.313 261.577C478.703 261.577 469.31 264.426 461.32 269.765C453.33 275.104 447.102 282.692 443.425 291.57C439.748 300.448 438.785 310.217 440.66 319.642C442.535 329.066 447.162 337.724 453.957 344.518C460.752 351.313 469.409 355.941 478.834 357.815C488.259 359.69 498.028 358.728 506.906 355.051C515.784 351.373 523.372 345.146 528.711 337.156C534.049 329.166 536.899 319.772 536.899 310.163C536.899 297.277 531.78 284.919 522.668 275.807C513.557 266.696 501.199 261.577 488.313 261.577ZM488.313 335.831C483.225 335.84 478.249 334.34 474.014 331.52C469.78 328.7 466.477 324.687 464.523 319.989C462.57 315.291 462.054 310.12 463.041 305.129C464.028 300.138 466.474 295.552 470.068 291.951C473.662 288.35 478.244 285.896 483.233 284.901C488.223 283.905 493.395 284.411 498.097 286.356C502.798 288.301 506.817 291.597 509.644 295.826C512.472 300.056 513.981 305.029 513.981 310.117C513.983 316.93 511.281 323.466 506.469 328.289C501.656 333.112 495.126 335.828 488.313 335.84V335.831Z" fill="#FBA498"/>
<path d="M389.59 149.749C379.981 149.749 370.587 152.599 362.597 157.937C354.607 163.276 348.38 170.864 344.702 179.742C341.025 188.62 340.063 198.389 341.937 207.814C343.812 217.239 348.44 225.896 355.234 232.691C362.029 239.486 370.687 244.113 380.111 245.988C389.536 247.862 399.305 246.9 408.183 243.223C417.061 239.545 424.649 233.318 429.988 225.328C435.327 217.338 438.176 207.945 438.176 198.335C438.176 185.449 433.057 173.091 423.946 163.98C414.834 154.868 402.476 149.749 389.59 149.749ZM389.59 224.003C384.502 224.012 379.526 222.512 375.292 219.692C371.057 216.872 367.754 212.859 365.801 208.161C363.848 203.464 363.332 198.292 364.319 193.301C365.306 188.31 367.751 183.724 371.345 180.123C374.94 176.522 379.521 174.069 384.511 173.073C389.5 172.077 394.673 172.583 399.374 174.528C404.075 176.473 408.094 179.769 410.921 183.999C413.749 188.228 415.258 193.202 415.258 198.289C415.261 205.103 412.559 211.639 407.746 216.462C402.933 221.285 396.403 224 389.59 224.012V224.003Z" fill="#FBA498"/>
<rect x="339.405" y="41.7794" width="298.19" height="318.19" stroke="#F73B20" stroke-width="0.809769" stroke-dasharray="1.62 1.62"/>
<line x1="638" y1="140.154" x2="339" y2="140.154" stroke="#F96853" stroke-width="0.809769" stroke-dasharray="1.62 1.62"/>
<path d="M488.382 260.749C513.996 260.749 534.76 257.052 534.76 252.491C534.76 247.931 513.996 244.233 488.382 244.233C462.768 244.233 442.004 247.931 442.004 252.491C442.004 257.052 462.768 260.749 488.382 260.749Z" fill="#FBA498"/>
<path d="M488.382 248.773C513.996 248.773 534.76 240.894 534.76 231.174C534.76 221.455 513.996 213.576 488.382 213.576C462.768 213.576 442.004 221.455 442.004 231.174C442.004 240.894 462.768 248.773 488.382 248.773Z" fill="#FA8270"/>
<path d="M488.382 233.506C513.996 233.506 534.76 212.741 534.76 187.127C534.76 161.513 513.996 140.749 488.382 140.749C462.768 140.749 442.004 161.513 442.004 187.127C442.004 212.741 462.768 233.506 488.382 233.506Z" fill="#F73B20"/>
<line x1="438.595" y1="360.583" x2="438.595" y2="41.583" stroke="#F96853" stroke-width="0.809769" stroke-dasharray="1.62 1.62"/>
<line x1="638" y1="261.154" x2="339" y2="261.154" stroke="#F96853" stroke-width="0.809769" stroke-dasharray="1.62 1.62"/>
</svg>
