<svg width="977" height="320" viewBox="0 0 977 320" fill="none" xmlns="http://www.w3.org/2000/svg">
<path d="M488.5 254.118C531.19 254.118 565.797 248.318 565.797 241.164C565.797 234.01 531.19 228.211 488.5 228.211C445.81 228.211 411.203 234.01 411.203 241.164C411.203 248.318 445.81 254.118 488.5 254.118Z" fill="#FBA498"/>
<path d="M488.5 235.332C531.19 235.332 565.797 222.972 565.797 207.726C565.797 192.48 531.19 180.121 488.5 180.121C445.81 180.121 411.203 192.48 411.203 207.726C411.203 222.972 445.81 235.332 488.5 235.332Z" fill="#FA8270"/>
<path d="M488.5 211.383C531.19 211.383 565.797 178.811 565.797 138.633C565.797 98.4537 531.19 65.8823 488.5 65.8823C445.81 65.8823 411.203 98.4537 411.203 138.633C411.203 178.811 445.81 211.383 488.5 211.383Z" fill="#F73B20"/>
</svg>
