<svg width="977" height="579" viewBox="0 0 977 579" fill="none" xmlns="http://www.w3.org/2000/svg">
<rect width="977" height="578.603" fill="#F73B20"/>
<path d="M45.7486 29.1988V73.7839H39.3248V39.6932H30.4205V35.241H31.7561C34.3002 35.241 36.2507 34.6898 37.6075 33.5874C39.0068 32.4425 39.876 30.9797 40.2152 29.1988H45.7486Z" fill="#FFF6F5"/>
<path d="M48.2927 506.215H58.0238V534.136H63.748V539.288H58.0238V550.8H51.6V539.288H30.4841V533.691L48.2927 506.215ZM51.6 511.303H51.4092L36.7807 533.882V534.136H51.6V511.303Z" fill="#FFF6F5"/>
<path d="M943.239 67.9961V73.7839H912.901V71.7487C912.901 68.6534 913.495 66.0033 914.682 63.7984C915.869 61.5511 917.247 59.7703 918.816 58.4558C920.385 57.099 922.272 55.7209 924.477 54.3217L930.582 50.4419C932.363 49.2547 933.826 47.9827 934.971 46.6258C936.116 45.2266 936.688 43.5305 936.688 41.5376C936.688 38.9511 935.989 37.0007 934.589 35.6862C933.19 34.3718 931.176 33.7146 928.547 33.7146C925.918 33.7146 923.798 34.5838 922.187 36.3223C920.618 38.0607 919.664 40.4776 919.325 43.5729L912.901 42.9369C913.198 39.884 914.088 37.2551 915.572 35.0502C917.056 32.8453 918.922 31.1917 921.169 30.0892C923.417 28.9444 925.876 28.372 928.547 28.372C931.261 28.372 933.741 28.8384 935.989 29.7712C938.236 30.7041 940.038 32.1457 941.395 34.0962C942.752 36.0466 943.43 38.4423 943.43 41.2832C943.43 43.5729 943.006 45.5446 942.158 47.1982C941.352 48.8095 940.292 50.1875 938.978 51.3324C937.706 52.4348 936.052 53.622 934.017 54.8941L927.084 59.3462C924.71 60.8727 922.971 62.3779 921.869 63.862C920.766 65.346 920.152 66.7241 920.024 67.9961H943.239Z" fill="#FFF6F5"/>
<path d="M928.674 525.423C931.218 525.423 933.275 524.766 934.844 523.451C936.413 522.137 937.197 520.356 937.197 518.109C937.197 515.819 936.434 514.017 934.907 512.702C933.423 511.388 931.536 510.731 929.247 510.731C926.999 510.731 925.113 511.409 923.586 512.766C922.06 514.123 921.127 516.052 920.788 518.554L914.427 517.918C914.894 514.017 916.441 510.964 919.07 508.759C921.742 506.512 925.134 505.388 929.247 505.388C932.045 505.388 934.547 505.897 936.752 506.915C938.957 507.89 940.695 509.353 941.967 511.303C943.239 513.211 943.875 515.48 943.875 518.109C943.875 520.229 943.26 522.116 942.031 523.769C940.844 525.381 939.275 526.61 937.324 527.458V527.713C939.699 528.476 941.607 529.79 943.048 531.656C944.532 533.479 945.274 535.726 945.274 538.398C945.274 542.68 943.769 545.966 940.759 548.256C937.748 550.546 933.911 551.691 929.247 551.691C924.71 551.691 920.978 550.525 918.053 548.192C915.169 545.86 913.41 542.447 912.774 537.953L919.388 537.253C919.812 540.348 920.872 542.638 922.568 544.122C924.307 545.606 926.533 546.348 929.247 546.348C931.918 546.348 934.123 545.648 935.861 544.249C937.642 542.807 938.533 540.857 938.533 538.398C938.533 535.726 937.642 533.734 935.861 532.419C934.08 531.062 931.685 530.384 928.674 530.384H924.731V525.423H928.674Z" fill="#FFF6F5"/>
<path d="M488.005 284.604C490.718 284.604 493.22 285.219 495.51 286.448C497.799 287.636 499.623 289.416 500.979 291.791C502.379 294.123 503.078 296.922 503.078 300.186C503.078 303.451 502.358 306.271 500.916 308.646C499.517 311.02 497.63 312.822 495.255 314.052C492.881 315.239 490.273 315.833 487.432 315.833C483.277 315.833 479.821 314.751 477.065 312.589C474.309 310.426 472.528 307.437 471.722 303.621L478.401 302.921C478.91 305.338 479.948 307.204 481.517 308.518C483.086 309.833 485.058 310.49 487.432 310.49C489.976 310.49 492.096 309.6 493.792 307.819C495.488 306.038 496.337 303.494 496.337 300.186C496.337 296.879 495.467 294.356 493.729 292.618C492.033 290.837 489.87 289.946 487.241 289.946C483.976 289.946 481.03 291.113 478.401 293.445H472.422L474.394 270.357H500.153V276.018H479.546L478.464 288.038H478.719C479.906 286.851 481.242 285.982 482.726 285.431C484.252 284.88 486.012 284.604 488.005 284.604Z" fill="#FFF6F5"/>
</svg>
