<svg width="977" height="320" viewBox="0 0 977 320" fill="none" xmlns="http://www.w3.org/2000/svg">
<g clip-path="url(#clip0_7379_26736)">
<path d="M568.554 122.701C558.924 122.701 549.51 125.557 541.503 130.907C533.496 136.257 527.255 143.862 523.57 152.759C519.884 161.656 518.92 171.446 520.799 180.891C522.678 190.336 527.315 199.012 534.125 205.822C540.934 212.631 549.61 217.269 559.055 219.147C568.5 221.026 578.29 220.062 587.187 216.377C596.084 212.691 603.689 206.45 609.039 198.443C614.389 190.436 617.245 181.022 617.245 171.392C617.245 158.478 612.115 146.094 602.984 136.962C593.853 127.831 581.468 122.701 568.554 122.701ZM568.554 197.116C563.456 197.125 558.469 195.621 554.225 192.795C549.981 189.969 546.671 185.947 544.714 181.239C542.756 176.532 542.239 171.349 543.228 166.347C544.217 161.345 546.668 156.749 550.27 153.141C553.872 149.532 558.464 147.073 563.464 146.075C568.464 145.077 573.648 145.585 578.359 147.534C583.071 149.483 587.098 152.786 589.932 157.025C592.765 161.263 594.278 166.247 594.278 171.346C594.28 178.174 591.572 184.724 586.749 189.558C581.926 194.391 575.382 197.113 568.554 197.125V197.116Z" fill="#F73B20"/>
<path d="M297.631 195.287H263.75V218.153H301.214C304.063 218.224 306.896 217.713 309.54 216.651C312.184 215.59 314.584 214 316.593 211.98C318.626 209.941 320.221 207.51 321.283 204.834C322.344 202.158 322.849 199.294 322.767 196.417V100H299.01V193.909C299.01 194.275 298.864 194.625 298.606 194.883C298.347 195.142 297.997 195.287 297.631 195.287Z" fill="#F73B20"/>
<path d="M407.238 128.635C400.305 124.677 392.446 122.629 384.463 122.7C378.117 122.633 371.821 123.833 365.944 126.231C360.067 128.628 354.728 132.175 350.24 136.663C345.752 141.151 342.206 146.49 339.808 152.367C337.41 158.243 336.21 164.539 336.278 170.886C336.163 179.485 338.331 187.96 342.561 195.447C346.791 202.935 352.932 209.165 360.357 213.504C367.78 217.827 376.232 220.067 384.822 219.99C394.422 219.99 403.012 218.153 410.361 214.643C417.711 211.134 423.223 206.017 426.705 199.623L427.128 198.851L409.048 187.965L408.588 188.801C406.441 192.474 403.205 195.389 399.328 197.142C394.927 199.282 390.091 200.373 385.198 200.33C378.088 200.33 372.07 198.263 367.321 194.175C362.81 190.289 359.861 184.905 358.538 178.162H428.533L428.68 177.418C429.249 174.081 429.505 170.697 429.443 167.312C429.547 159.465 427.54 151.734 423.632 144.928C419.724 138.122 414.059 132.492 407.229 128.626L407.238 128.635ZM367.954 146.495C372.384 143.18 377.804 141.461 383.333 141.616C388.888 141.461 394.324 143.248 398.703 146.669C402.512 149.66 405.212 153.838 406.374 158.539H359.631C361.108 153.767 364.013 149.563 367.954 146.495Z" fill="#F73B20"/>
<path d="M480.448 100H457.609V124.575H438.316V146.293H457.609V196.39C457.529 199.277 458.045 202.15 459.124 204.829C460.204 207.508 461.824 209.936 463.884 211.961C465.913 213.979 468.328 215.568 470.984 216.632C473.641 217.696 476.484 218.213 479.345 218.153H511.803V196.408H481.826C481.46 196.408 481.11 196.263 480.851 196.004C480.593 195.746 480.448 195.395 480.448 195.03V146.293H511.803V124.575H480.448V100Z" fill="#F73B20"/>
<path d="M708.61 130.75C706.571 128.717 704.14 127.122 701.464 126.06C698.789 124.999 695.925 124.494 693.047 124.576H629.859V218.154H652.514V147.672C652.514 147.307 652.66 146.956 652.918 146.698C653.176 146.439 653.527 146.294 653.892 146.294H690.567C690.932 146.294 691.283 146.439 691.541 146.698C691.8 146.956 691.945 147.307 691.945 147.672V218.154H714.784V146.312C714.866 143.435 714.361 140.571 713.299 137.895C712.238 135.22 710.642 132.788 708.61 130.75Z" fill="#F73B20"/>
</g>
<defs>
<clipPath id="clip0_7379_26736">
<rect width="451.034" height="120" fill="white" transform="translate(263.75 100)"/>
</clipPath>
</defs>
</svg>
