<svg width="977" height="481" viewBox="0 0 977 481" fill="none" xmlns="http://www.w3.org/2000/svg">
<rect width="977" height="480" transform="translate(0 0.791504)" fill="#360802"/>
<path d="M488.5 340.792C531.19 340.792 565.797 334.63 565.797 327.029C565.797 319.427 531.19 313.266 488.5 313.266C445.81 313.266 411.203 319.427 411.203 327.029C411.203 334.63 445.81 340.792 488.5 340.792Z" fill="#FBA498"/>
<path d="M488.5 320.831C531.19 320.831 565.797 307.699 565.797 291.5C565.797 275.301 531.19 262.169 488.5 262.169C445.81 262.169 411.203 275.301 411.203 291.5C411.203 307.699 445.81 320.831 488.5 320.831Z" fill="#FA8270"/>
<path d="M488.5 295.386C531.19 295.386 565.797 260.779 565.797 218.089C565.797 175.399 531.19 140.792 488.5 140.792C445.81 140.792 411.203 175.399 411.203 218.089C411.203 260.779 445.81 295.386 488.5 295.386Z" fill="#F73B20"/>
</svg>
