<svg width="977" height="400" viewBox="0 0 977 400" fill="none" xmlns="http://www.w3.org/2000/svg">
<rect width="977" height="400" fill="#FFF6F5"/>
<path d="M763.512 162.656C753.902 162.656 744.509 165.505 736.519 170.844C728.529 176.182 722.302 183.771 718.624 192.649C714.947 201.526 713.985 211.296 715.859 220.72C717.734 230.145 722.361 238.802 729.156 245.597C735.951 252.392 744.608 257.019 754.033 258.894C763.458 260.769 773.227 259.807 782.105 256.129C790.983 252.452 798.571 246.225 803.91 238.235C809.248 230.245 812.098 220.851 812.098 211.242C812.098 198.356 806.979 185.998 797.867 176.886C788.756 167.774 776.398 162.656 763.512 162.656ZM763.512 236.91C758.424 236.919 753.448 235.418 749.214 232.598C744.979 229.778 741.676 225.766 739.723 221.068C737.769 216.37 737.254 211.198 738.241 206.207C739.228 201.216 741.673 196.63 745.267 193.03C748.862 189.429 753.443 186.975 758.433 185.979C763.422 184.983 768.594 185.49 773.296 187.435C777.997 189.38 782.016 192.675 784.843 196.905C787.671 201.135 789.18 206.108 789.18 211.196C789.182 218.009 786.481 224.545 781.668 229.368C776.855 234.191 770.325 236.907 763.512 236.919V236.91Z" fill="#FBA498"/>
<line x1="714.329" y1="355.38" x2="714.33" y2="41.9999" stroke="#F96853" stroke-width="0.809769" stroke-dasharray="1.62 1.62"/>
<path d="M488.809 42.4048C479.199 42.4048 469.806 45.2543 461.816 50.593C453.826 55.9317 447.598 63.5198 443.921 72.3978C440.244 81.2757 439.282 91.0448 441.156 100.47C443.031 109.894 447.658 118.552 454.453 125.346C461.248 132.141 469.905 136.769 479.33 138.643C488.755 140.518 498.524 139.556 507.402 135.879C516.28 132.201 523.868 125.974 529.207 117.984C534.545 109.994 537.395 100.6 537.395 90.9909C537.395 78.1051 532.276 65.747 523.164 56.6353C514.053 47.5237 501.695 42.4048 488.809 42.4048ZM488.809 116.659C483.721 116.668 478.745 115.168 474.51 112.348C470.276 109.528 466.973 105.515 465.02 100.817C463.066 96.1194 462.55 90.9477 463.537 85.9567C464.524 80.9656 466.97 76.3795 470.564 72.7788C474.159 69.178 478.74 66.7245 483.73 65.7286C488.719 64.7327 493.891 65.2392 498.593 67.1841C503.294 69.129 507.313 72.4247 510.14 76.6544C512.968 80.884 514.477 85.8573 514.477 90.945C514.479 97.7585 511.778 104.294 506.965 109.117C502.152 113.94 495.622 116.656 488.809 116.668V116.659Z" fill="#FBA498"/>
<path d="M488.809 259.828C479.199 259.828 469.806 262.677 461.816 268.016C453.826 273.355 447.598 280.943 443.921 289.821C440.244 298.699 439.282 308.468 441.156 317.892C443.031 327.317 447.658 335.974 454.453 342.769C461.248 349.564 469.905 354.192 479.33 356.066C488.755 357.941 498.524 356.979 507.402 353.301C516.28 349.624 523.868 343.397 529.207 335.407C534.545 327.417 537.395 318.023 537.395 308.414C537.395 295.528 532.276 283.17 523.164 274.058C514.053 264.947 501.695 259.828 488.809 259.828ZM488.809 334.082C483.721 334.091 478.745 332.591 474.51 329.771C470.276 326.951 466.973 322.938 465.02 318.24C463.066 313.542 462.55 308.371 463.537 303.38C464.524 298.388 466.97 293.802 470.564 290.202C474.159 286.601 478.74 284.147 483.73 283.151C488.719 282.156 493.891 282.662 498.593 284.607C503.294 286.552 507.313 289.848 510.14 294.077C512.968 298.307 514.477 303.28 514.477 308.368C514.479 315.181 511.778 321.717 506.965 326.54C502.152 331.363 495.622 334.079 488.809 334.091V334.082Z" fill="#FBA498"/>
<path d="M213.488 162.656C203.879 162.656 194.485 165.505 186.495 170.844C178.506 176.182 172.278 183.771 168.601 192.649C164.923 201.526 163.961 211.296 165.836 220.72C167.711 230.145 172.338 238.802 179.133 245.597C185.928 252.392 194.585 257.019 204.01 258.894C213.435 260.769 223.204 259.807 232.082 256.129C240.96 252.452 248.548 246.225 253.886 238.235C259.225 230.245 262.075 220.851 262.075 211.242C262.075 198.356 256.956 185.998 247.844 176.886C238.732 167.774 226.374 162.656 213.488 162.656ZM213.488 236.91C208.401 236.919 203.425 235.418 199.19 232.598C194.955 229.778 191.652 225.766 189.699 221.068C187.746 216.37 187.23 211.198 188.217 206.207C189.204 201.216 191.65 196.63 195.244 193.03C198.838 189.429 203.42 186.975 208.409 185.979C213.398 184.983 218.571 185.49 223.272 187.435C227.974 189.38 231.992 192.675 234.82 196.905C237.647 201.135 239.157 206.108 239.157 211.196C239.159 218.009 236.457 224.545 231.645 229.368C226.832 234.191 220.302 236.907 213.488 236.919V236.91Z" fill="#FBA498"/>
<path d="M567.436 162.554C557.81 162.554 548.4 165.409 540.396 170.757C532.392 176.104 526.154 183.706 522.47 192.599C518.787 201.492 517.823 211.278 519.701 220.719C521.579 230.16 526.214 238.832 533.021 245.639C539.827 252.446 548.5 257.081 557.941 258.959C567.382 260.837 577.168 259.873 586.061 256.189C594.954 252.506 602.555 246.267 607.903 238.264C613.251 230.26 616.106 220.85 616.106 211.224C616.106 198.316 610.978 185.937 601.85 176.809C592.723 167.682 580.344 162.554 567.436 162.554ZM567.436 236.937C562.339 236.946 557.355 235.443 553.113 232.618C548.871 229.793 545.562 225.773 543.605 221.067C541.649 216.361 541.132 211.181 542.121 206.181C543.109 201.182 545.559 196.588 549.16 192.981C552.76 189.374 557.35 186.916 562.348 185.918C567.345 184.921 572.527 185.428 577.236 187.376C581.946 189.324 585.971 192.626 588.804 196.863C591.636 201.1 593.148 206.082 593.148 211.178C593.15 218.003 590.444 224.551 585.623 229.382C580.802 234.213 574.261 236.934 567.436 236.946V236.937Z" fill="#F73B20"/>
<path d="M296.629 235.127H262.762V257.983H300.21C303.057 258.054 305.889 257.543 308.532 256.482C311.175 255.421 313.574 253.832 315.582 251.812C317.614 249.775 319.209 247.344 320.27 244.67C321.331 241.995 321.836 239.132 321.753 236.256V139.881H298.006V233.749C298.006 234.115 297.861 234.465 297.603 234.723C297.344 234.982 296.994 235.127 296.629 235.127Z" fill="#F73B20"/>
<path d="M406.184 168.489C399.254 164.533 391.399 162.485 383.419 162.557C377.075 162.489 370.782 163.689 364.908 166.086C359.034 168.482 353.697 172.027 349.211 176.513C344.725 180.999 341.18 186.336 338.783 192.21C336.386 198.084 335.187 204.378 335.254 210.722C335.139 219.317 337.307 227.789 341.535 235.273C345.763 242.757 351.901 248.985 359.323 253.322C366.743 257.642 375.191 259.882 383.777 259.805C393.374 259.805 401.96 257.968 409.306 254.46C416.653 250.953 422.162 245.838 425.643 239.446L426.065 238.675L407.993 227.793L407.534 228.629C405.387 232.3 402.153 235.214 398.277 236.967C393.879 239.106 389.045 240.196 384.154 240.153C377.046 240.153 371.031 238.087 366.284 234.001C361.775 230.116 358.827 224.735 357.505 217.995H427.47L427.617 217.251C428.186 213.915 428.441 210.533 428.379 207.15C428.483 199.306 426.477 191.578 422.571 184.775C418.665 177.972 413.002 172.344 406.175 168.48L406.184 168.489ZM366.917 186.341C371.345 183.028 376.762 181.309 382.29 181.465C387.842 181.31 393.275 183.096 397.653 186.515C401.46 189.505 404.159 193.681 405.321 198.38H358.598C360.074 193.61 362.978 189.408 366.917 186.341Z" fill="#F73B20"/>
<path d="M479.371 139.881H456.542V164.445H437.258V186.154H456.542V236.229C456.462 239.115 456.978 241.987 458.057 244.665C459.136 247.343 460.755 249.77 462.814 251.794C464.842 253.811 467.256 255.399 469.911 256.462C472.567 257.526 475.409 258.043 478.269 257.983H510.713V236.247H480.749C480.383 236.247 480.033 236.102 479.775 235.844C479.516 235.585 479.371 235.235 479.371 234.87V186.154H510.713V164.445H479.371V139.881Z" fill="#F73B20"/>
<path d="M707.432 170.606C705.394 168.575 702.964 166.98 700.289 165.919C697.615 164.858 694.752 164.353 691.876 164.435H628.715V257.974H651.36V187.521C651.36 187.156 651.505 186.806 651.764 186.547C652.022 186.289 652.372 186.144 652.738 186.144H689.396C689.762 186.144 690.112 186.289 690.37 186.547C690.629 186.806 690.774 187.156 690.774 187.521V257.974H713.603V186.162C713.685 183.286 713.18 180.423 712.119 177.749C711.058 175.074 709.463 172.644 707.432 170.606Z" fill="#F73B20"/>
<rect x="163.905" y="42.4049" width="649.19" height="314.19" stroke="#F73B20" stroke-width="0.809769" stroke-dasharray="1.62 1.62"/>
<line x1="811.098" y1="139.982" x2="164.902" y2="139.982" stroke="#F96853" stroke-width="0.809769" stroke-dasharray="1.62 1.62"/>
<line x1="262.478" y1="355.38" x2="262.478" y2="41.9999" stroke="#F96853" stroke-width="0.809769" stroke-dasharray="1.62 1.62"/>
<line x1="811.098" y1="260.233" x2="164.902" y2="260.233" stroke="#F96853" stroke-width="0.809769" stroke-dasharray="1.62 1.62"/>
</svg>
