<svg width="977" height="480" viewBox="0 0 977 480" fill="none" xmlns="http://www.w3.org/2000/svg">
<rect width="977" height="480" fill="#F73B20"/>
<g clip-path="url(#clip0_7379_26757)">
<path d="M555.005 208.918C546.98 208.918 539.135 211.298 532.463 215.756C525.79 220.215 520.589 226.552 517.518 233.966C514.447 241.38 513.644 249.539 515.209 257.41C516.775 265.281 520.639 272.51 526.314 278.185C531.989 283.86 539.219 287.724 547.089 289.29C554.96 290.855 563.119 290.052 570.533 286.981C577.947 283.91 584.284 278.709 588.743 272.036C593.201 265.364 595.581 257.519 595.581 249.494C595.581 238.732 591.306 228.412 583.697 220.802C576.087 213.193 565.767 208.918 555.005 208.918V208.918ZM555.005 270.93C550.757 270.937 546.601 269.684 543.064 267.329C539.528 264.974 536.77 261.623 535.138 257.7C533.507 253.777 533.076 249.458 533.901 245.289C534.725 241.121 536.767 237.291 539.769 234.284C542.771 231.277 546.597 229.228 550.764 228.396C554.93 227.565 559.25 227.988 563.176 229.612C567.102 231.236 570.459 233.989 572.82 237.521C575.181 241.053 576.442 245.207 576.442 249.455C576.444 255.145 574.187 260.604 570.168 264.632C566.149 268.659 560.696 270.927 555.005 270.938V270.93Z" fill="white"/>
<path d="M329.235 269.406H301V288.461H332.22C334.594 288.52 336.955 288.094 339.158 287.21C341.362 286.325 343.362 285 345.036 283.316C346.73 281.618 348.059 279.592 348.944 277.362C349.829 275.132 350.249 272.745 350.181 270.348V190H330.383V268.258C330.383 268.562 330.262 268.854 330.047 269.07C329.831 269.285 329.539 269.406 329.235 269.406Z" fill="white"/>
<path d="M420.574 213.863C414.797 210.565 408.248 208.858 401.596 208.918C396.307 208.861 391.06 209.862 386.163 211.86C381.266 213.858 376.817 216.813 373.077 220.553C369.337 224.293 366.381 228.742 364.383 233.639C362.385 238.537 361.385 243.784 361.441 249.072C361.345 256.238 363.152 263.301 366.677 269.54C370.202 275.78 375.32 280.972 381.507 284.588C387.693 288.19 394.736 290.057 401.894 289.993C409.895 289.993 417.053 288.461 423.177 285.537C429.302 282.612 433.896 278.348 436.797 273.02L437.149 272.377L422.083 263.305L421.7 264.001C419.91 267.062 417.214 269.492 413.983 270.953C410.316 272.736 406.286 273.645 402.208 273.609C396.283 273.609 391.268 271.887 387.31 268.48C383.551 265.241 381.094 260.755 379.991 255.136H438.321L438.443 254.516C438.917 251.735 439.13 248.915 439.079 246.094C439.165 239.555 437.493 233.112 434.236 227.441C430.98 221.769 426.258 217.077 420.567 213.856L420.574 213.863ZM387.838 228.746C391.529 225.984 396.046 224.552 400.654 224.681C405.283 224.552 409.813 226.041 413.462 228.892C416.636 231.384 418.886 234.865 419.855 238.783H380.902C382.133 234.807 384.554 231.303 387.838 228.746V228.746Z" fill="white"/>
<path d="M481.582 190H462.55V210.479H446.473V228.578H462.55V270.325C462.483 272.731 462.913 275.125 463.812 277.358C464.712 279.59 466.062 281.614 467.779 283.301C469.47 284.983 471.482 286.307 473.696 287.193C475.909 288.08 478.279 288.511 480.663 288.461H507.711V270.34H482.731C482.426 270.34 482.134 270.219 481.918 270.004C481.703 269.788 481.582 269.496 481.582 269.192V228.578H507.711V210.479H481.582V190Z" fill="white"/>
<path d="M671.715 215.624C670.017 213.93 667.99 212.6 665.761 211.716C663.531 210.831 661.144 210.411 658.746 210.479H606.09V288.461H624.969V229.726C624.969 229.421 625.09 229.129 625.305 228.914C625.521 228.698 625.813 228.577 626.117 228.577H656.679C656.984 228.577 657.276 228.698 657.491 228.914C657.707 229.129 657.828 229.421 657.828 229.726V288.461H676.86V228.593C676.929 226.195 676.508 223.808 675.623 221.578C674.739 219.349 673.409 217.323 671.715 215.624V215.624Z" fill="white"/>
</g>
<defs>
<clipPath id="clip0_7379_26757">
<rect width="375.861" height="100" fill="white" transform="translate(301 190)"/>
</clipPath>
</defs>
</svg>
