<svg width="977" height="243" viewBox="0 0 977 243" fill="none" xmlns="http://www.w3.org/2000/svg">
<path d="M290.193 96.2015C283.709 96.2015 277.37 98.1737 271.978 101.869C266.586 105.564 262.384 110.816 259.902 116.961C257.42 123.105 256.771 129.867 258.036 136.39C259.301 142.913 262.424 148.905 267.009 153.608C271.595 158.311 277.437 161.514 283.797 162.811C290.157 164.109 296.749 163.443 302.741 160.897C308.732 158.352 313.852 154.042 317.455 148.512C321.058 142.982 322.981 136.48 322.981 129.829C322.981 120.911 319.526 112.357 313.378 106.051C307.229 99.7444 298.889 96.2015 290.193 96.2015ZM290.193 147.595C286.76 147.601 283.402 146.563 280.545 144.611C277.687 142.659 275.458 139.882 274.14 136.63C272.822 133.379 272.474 129.799 273.14 126.345C273.806 122.891 275.456 119.716 277.882 117.224C280.307 114.732 283.399 113.034 286.766 112.345C290.133 111.655 293.623 112.006 296.796 113.352C299.968 114.698 302.68 116.979 304.588 119.907C306.496 122.834 307.515 126.276 307.515 129.798C307.517 134.513 305.693 139.037 302.446 142.375C299.198 145.713 294.791 147.593 290.193 147.601V147.595Z" fill="#F73B20"/>
<path d="M104.023 146.152H80.8594V161.77H106.472C108.42 161.819 110.356 161.469 112.164 160.744C113.972 160.019 115.613 158.934 116.986 157.554C118.376 156.161 119.467 154.5 120.192 152.673C120.918 150.845 121.263 148.889 121.207 146.924V81.0678H104.965V145.211C104.965 145.46 104.866 145.7 104.689 145.876C104.512 146.053 104.273 146.152 104.023 146.152Z" fill="#F73B20"/>
<path d="M179.962 100.306C175.208 97.5696 169.819 96.154 164.345 96.2034C159.993 96.1566 155.676 96.9863 151.646 98.6436C147.616 100.301 143.955 102.753 140.878 105.855C137.801 108.957 135.368 112.648 133.724 116.71C132.08 120.773 131.257 125.125 131.304 129.512C131.225 135.456 132.712 141.315 135.612 146.49C138.513 151.666 142.724 155.973 147.815 158.972C152.905 161.96 158.701 163.509 164.591 163.456C171.174 163.456 177.064 162.186 182.103 159.76C187.143 157.334 190.923 153.797 193.31 149.377L193.6 148.843L181.203 141.318L180.888 141.896C179.415 144.435 177.196 146.45 174.538 147.662C171.52 149.141 168.204 149.895 164.849 149.866C159.973 149.866 155.847 148.437 152.59 145.611C149.497 142.925 147.475 139.203 146.568 134.542H194.564L194.665 134.027C195.055 131.72 195.23 129.382 195.188 127.042C195.259 121.617 193.883 116.273 191.203 111.568C188.523 106.864 184.639 102.972 179.955 100.299L179.962 100.306ZM153.025 112.651C156.062 110.36 159.778 109.172 163.57 109.279C167.379 109.172 171.106 110.407 174.109 112.772C176.721 114.839 178.572 117.727 179.369 120.977H147.317C148.33 117.678 150.322 114.773 153.025 112.651Z" fill="#F73B20"/>
<path d="M229.158 81.0678H213.481V97.8536H200.238V112.688H213.481V146.906C213.426 148.878 213.78 150.84 214.521 152.67C215.262 154.5 216.374 156.159 217.788 157.542C219.181 158.921 220.838 160.005 222.662 160.732C224.485 161.459 226.437 161.812 228.401 161.772H250.68V146.918H230.104C229.853 146.918 229.612 146.819 229.435 146.643C229.257 146.466 229.158 146.227 229.158 145.977V112.688H250.68V97.8536H229.158V81.0678Z" fill="#F73B20"/>
<path d="M385.952 102.101C384.539 100.713 382.855 99.6241 381.001 98.8994C379.147 98.1747 377.162 97.83 375.169 97.8861H331.387V161.773H347.084V113.654C347.084 113.405 347.185 113.165 347.364 112.989C347.543 112.812 347.786 112.713 348.039 112.713H373.45C373.703 112.713 373.946 112.812 374.125 112.989C374.304 113.165 374.405 113.405 374.405 113.654V161.773H390.23V112.726C390.287 110.761 389.937 108.806 389.201 106.979C388.466 105.153 387.36 103.493 385.952 102.101Z" fill="#F73B20"/>
<path d="M460.24 117.009L455.386 112.461L439.935 126.754L424.583 112.461L419.729 117.009L435.082 131.395L419.531 145.966L424.385 150.514L439.935 135.942L455.485 150.514L460.438 145.966L444.788 131.395L460.24 117.009Z" fill="#F73B20"/>
<rect x="0.475657" y="0.681712" width="976.049" height="241.634" stroke="#F96853" stroke-width="0.951315" stroke-dasharray="1.9 1.9"/>
<line x1="81.3389" y1="0.206055" x2="81.3389" y2="242.791" stroke="#F96853" stroke-width="0.951315" stroke-dasharray="1.9 1.9"/>
<line x1="390.515" y1="0.206055" x2="390.515" y2="242.791" stroke="#F96853" stroke-width="0.951315" stroke-dasharray="1.9 1.9"/>
<line x1="440.933" y1="0.206055" x2="440.933" y2="242.791" stroke="#F96853" stroke-width="0.951315" stroke-dasharray="1.9 1.9"/>
<line x1="896.612" y1="0.206055" x2="896.612" y2="242.791" stroke="#F96853" stroke-width="0.951315" stroke-dasharray="1.9 1.9"/>
<line x1="491.355" y1="0.206055" x2="491.355" y2="242.791" stroke="#F96853" stroke-width="0.951315" stroke-dasharray="1.9 1.9"/>
<path d="M561.171 98.1437H540.842L526.732 142.599H526.36L512.25 98.1437H491.828V162.658H504.639V114.95H505.01L521.162 162.658H531.466L547.711 114.95H548.082V162.658H561.171V98.1437Z" fill="#F73B20"/>
<path d="M603.241 147.478C602.22 150.55 599.528 154.887 592.38 154.887C585.603 154.887 581.24 149.375 581.055 141.514H616.887C618.093 123.624 607.789 113.775 592.38 113.775C577.063 113.775 567.78 123.534 567.78 138.894C567.78 154.074 577.342 163.832 592.38 163.832C607.975 163.832 614.473 155.248 616.423 148.472L603.241 147.478ZM592.38 122.54C599.342 122.54 603.148 127.419 603.612 133.292H581.24C581.705 127.419 585.511 122.54 592.38 122.54Z" fill="#F73B20"/>
<path d="M635.661 114.859H623.222V162.658H636.218V138.533C636.218 128.774 641.694 125.612 649.121 125.612C651.07 125.612 653.02 125.792 654.226 125.973V114.137C653.298 113.866 651.998 113.775 650.792 113.775C643.551 113.775 638.631 117.299 636.032 122.178H635.661V114.859Z" fill="#F73B20"/>
<path d="M682.261 154.345C675.391 154.345 670.936 149.104 670.936 138.804C670.936 128.503 675.391 123.263 682.261 123.263C689.037 123.263 691.729 128.142 692.843 131.575L705.468 128.865C703.611 123.082 697.67 113.775 682.261 113.775C667.037 113.775 657.661 123.443 657.661 138.804C657.661 154.164 667.037 163.832 682.261 163.832C697.67 163.832 704.168 154.526 706.21 146.574L693.029 145.038C692.008 149.285 689.316 154.345 682.261 154.345Z" fill="#F73B20"/>
<path d="M724.376 121.184V97.2401H711.38V162.658H724.376V137.268C724.376 128.684 729.574 123.985 734.773 123.985C740.714 123.985 744.056 126.786 744.056 134.467V162.658H756.959V131.214C756.959 119.106 749.161 113.775 740.064 113.775C733.288 113.775 728.182 116.576 724.747 121.184H724.376Z" fill="#F73B20"/>
<path d="M809.462 162.658C808.255 160.76 808.163 158.049 808.163 153.08V129.226C808.163 120.1 801.757 113.775 786.905 113.775C775.301 113.775 766.668 119.106 764.44 128.142L776.508 129.858C777.993 125.07 782.078 122.811 786.534 122.811C792.475 122.811 795.167 125.07 795.167 128.684C795.167 131.485 792.66 132.931 783.006 134.015C770.103 135.551 762.584 139.346 762.584 149.646C762.584 158.501 770.381 163.832 778.922 163.832C785.605 163.832 792.382 161.212 795.167 156.062C795.167 159.314 795.816 161.754 796.652 162.658H809.462ZM795.167 144.135C795.167 151.996 788.204 155.068 782.913 155.068C778.55 155.068 775.858 152.899 775.858 149.014C775.858 144.586 779.757 142.418 784.491 141.695C789.226 141.063 793.588 140.43 795.167 139.165V144.135Z" fill="#F73B20"/>
<path d="M827.751 121.184V114.859H815.312V162.658H828.308V136.635C828.308 128.142 833.321 123.985 838.705 123.985C844.646 123.985 847.988 126.786 847.988 134.467V162.658H860.891V131.214C860.891 119.106 853.093 113.775 843.625 113.775C836.663 113.775 831.464 116.576 828.122 121.184H827.751Z" fill="#F73B20"/>
<path d="M891.681 152.899C887.596 152.899 885.926 152.447 885.926 148.11V123.353H896.137V114.859H885.926V101.487H872.93V114.859H865.132V123.353H872.93V151.363C872.93 160.76 877.293 162.838 887.318 162.838C890.474 162.838 894.559 162.838 895.765 162.658V152.809C894.651 152.899 892.981 152.899 891.681 152.899Z" fill="#F73B20"/>
<line x1="0.953125" y1="80.5921" x2="970.343" y2="80.5921" stroke="#F96853" stroke-width="0.951315" stroke-dasharray="1.9 1.9"/>
<line x1="0.953125" y1="97.7158" x2="977.002" y2="97.7158" stroke="#360802" stroke-width="0.951315" stroke-dasharray="1.9 1.9"/>
<line x1="0.953125" y1="163.356" x2="977.002" y2="163.356" stroke="#360802" stroke-width="0.951315" stroke-dasharray="1.9 1.9"/>
<path d="M26.302 37.8808H25.1908C25.0691 38.6266 24.5668 39.2507 23.2425 39.2507H22.9838V40.164H25.0234V48.5508H26.302V37.8808ZM32.1389 37.6829C30.0993 37.6829 28.1357 39.0072 28.1357 43.2234C28.1357 47.4396 30.0993 48.7638 32.1389 48.7638C34.1785 48.7638 36.142 47.4396 36.142 43.2234C36.142 39.0072 34.1785 37.6829 32.1389 37.6829ZM32.1389 47.6832C30.7842 47.6832 29.4752 46.8612 29.4752 43.2386C29.4752 39.6008 30.7842 38.7636 32.1389 38.7636C33.4783 38.7636 34.8026 39.6008 34.8026 43.2386C34.8026 46.8612 33.4783 47.6832 32.1389 47.6832ZM41.3732 37.6829C39.3336 37.6829 37.37 39.0072 37.37 43.2234C37.37 47.4396 39.3336 48.7638 41.3732 48.7638C43.4128 48.7638 45.3763 47.4396 45.3763 43.2234C45.3763 39.0072 43.4128 37.6829 41.3732 37.6829ZM41.3732 47.6832C40.0185 47.6832 38.7095 46.8612 38.7095 43.2386C38.7095 39.6008 40.0185 38.7636 41.3732 38.7636C42.7126 38.7636 44.0369 39.6008 44.0369 43.2386C44.0369 46.8612 42.7126 47.6832 41.3732 47.6832ZM48.9484 37.6829C47.5633 37.6829 46.5587 38.6266 46.5587 40.7119C46.5587 42.8124 47.5633 43.7561 48.9484 43.7561C50.3335 43.7561 51.3381 42.8124 51.3381 40.7119C51.3381 38.6266 50.3335 37.6829 48.9484 37.6829ZM56.1175 37.8808H55.1585L49.0854 48.5508H50.0443L56.1175 37.8808ZM48.9484 42.8733C48.1112 42.8733 47.6698 42.2492 47.6698 40.7119C47.6698 39.1746 48.1112 38.5505 48.9484 38.5505C49.7855 38.5505 50.2269 39.1746 50.2269 40.7119C50.2269 42.2492 49.7855 42.8733 48.9484 42.8733ZM56.2392 42.6907C54.8693 42.6907 53.8648 43.6496 53.8648 45.7349C53.8648 47.8049 54.8693 48.7638 56.2392 48.7638C57.6396 48.7638 58.6289 47.8049 58.6289 45.7349C58.6289 43.6496 57.6396 42.6907 56.2392 42.6907ZM56.2392 47.881C55.4021 47.881 54.9759 47.257 54.9759 45.7349C54.9759 44.1975 55.4021 43.5735 56.2392 43.5735C57.0916 43.5735 57.5178 44.1975 57.5178 45.7349C57.5178 47.257 57.0916 47.881 56.2392 47.881Z" fill="#F73B20"/>
<path d="M921.961 37.8808H920.85C920.728 38.6266 920.226 39.2507 918.902 39.2507H918.643V40.164H920.683V48.5508H921.961V37.8808ZM927.798 37.6829C925.759 37.6829 923.795 39.0072 923.795 43.2234C923.795 47.4396 925.759 48.7638 927.798 48.7638C929.838 48.7638 931.801 47.4396 931.801 43.2234C931.801 39.0072 929.838 37.6829 927.798 37.6829ZM927.798 47.6832C926.443 47.6832 925.134 46.8612 925.134 43.2386C925.134 39.6008 926.443 38.7636 927.798 38.7636C929.138 38.7636 930.462 39.6008 930.462 43.2386C930.462 46.8612 929.138 47.6832 927.798 47.6832ZM937.032 37.6829C934.993 37.6829 933.029 39.0072 933.029 43.2234C933.029 47.4396 934.993 48.7638 937.032 48.7638C939.072 48.7638 941.036 47.4396 941.036 43.2234C941.036 39.0072 939.072 37.6829 937.032 37.6829ZM937.032 47.6832C935.678 47.6832 934.369 46.8612 934.369 43.2386C934.369 39.6008 935.678 38.7636 937.032 38.7636C938.372 38.7636 939.696 39.6008 939.696 43.2386C939.696 46.8612 938.372 47.6832 937.032 47.6832ZM944.608 37.6829C943.223 37.6829 942.218 38.6266 942.218 40.7119C942.218 42.8124 943.223 43.7561 944.608 43.7561C945.993 43.7561 946.997 42.8124 946.997 40.7119C946.997 38.6266 945.993 37.6829 944.608 37.6829ZM951.777 37.8808H950.818L944.745 48.5508H945.704L951.777 37.8808ZM944.608 42.8733C943.77 42.8733 943.329 42.2492 943.329 40.7119C943.329 39.1746 943.77 38.5505 944.608 38.5505C945.445 38.5505 945.886 39.1746 945.886 40.7119C945.886 42.2492 945.445 42.8733 944.608 42.8733ZM951.898 42.6907C950.529 42.6907 949.524 43.6496 949.524 45.7349C949.524 47.8049 950.529 48.7638 951.898 48.7638C953.299 48.7638 954.288 47.8049 954.288 45.7349C954.288 43.6496 953.299 42.6907 951.898 42.6907ZM951.898 47.881C951.061 47.881 950.635 47.257 950.635 45.7349C950.635 44.1975 951.061 43.5735 951.898 43.5735C952.751 43.5735 953.177 44.1975 953.177 45.7349C953.177 47.257 952.751 47.881 951.898 47.881Z" fill="#F73B20"/>
<path d="M915.896 135.12H917.418L914.511 131.011L917.251 127.114H915.79L913.765 130.082L911.726 127.114H910.234L912.974 131.041L910.082 135.12H911.528L913.735 131.985L915.896 135.12ZM929.913 124.253H928.543V129.062H922.698V124.253H921.328V135.12H922.698V130.219H928.543V135.12H929.913V124.253ZM937.146 132.685C936.918 133.37 936.279 134.253 934.833 134.253C933.432 134.253 932.504 133.081 932.458 131.437H938.501C938.653 128.606 937.055 126.931 934.833 126.931C932.626 126.931 931.164 128.591 931.164 131.132C931.164 133.659 932.656 135.318 934.833 135.318C937.07 135.318 938.06 134.009 938.44 132.852L937.146 132.685ZM934.833 127.997C936.264 127.997 937.085 129.123 937.192 130.432H932.473C932.595 129.123 933.417 127.997 934.833 127.997ZM939.706 124.1V125.562H941.03V124.1H939.706ZM939.736 127.114V135.12H941V127.114H939.736ZM949.567 127.114H948.349V128.256H948.304C947.878 127.434 946.903 126.931 945.762 126.931C943.692 126.931 942.231 128.469 942.231 130.813C942.231 133.157 943.692 134.694 945.762 134.694C946.873 134.694 947.832 134.207 948.243 133.446H948.289V134.512C948.289 136.308 947.391 137.053 945.914 137.053C944.757 137.053 943.92 136.612 943.585 135.425L942.368 135.714C942.855 137.373 944.24 138.104 945.914 138.104C947.984 138.104 949.567 137.114 949.567 134.588V127.114ZM945.975 133.659C944.499 133.659 943.524 132.518 943.524 130.813C943.524 129.123 944.499 127.997 945.975 127.997C947.391 127.997 948.38 129.123 948.38 130.813C948.38 132.518 947.391 133.659 945.975 133.659ZM952.214 128.271V124.1H950.935V135.12H952.214V130.782C952.214 128.956 953.34 128.012 954.406 128.012C955.699 128.012 956.308 128.651 956.308 130.234V135.12H957.587V129.793C957.587 127.845 956.293 126.931 954.771 126.931C953.705 126.931 952.762 127.449 952.259 128.271H952.214ZM961.921 134.04C961.206 134.04 960.947 133.872 960.947 133.081V128.103H962.804V127.114H960.947V124.816H959.668V127.114H958.344V128.103H959.668V133.4C959.668 134.801 960.247 135.166 961.678 135.166C962.073 135.166 962.53 135.151 962.728 135.136V134.024C962.53 134.04 962.149 134.04 961.921 134.04Z" fill="#360802"/>
<path d="M19.7595 135.12H21.2816L18.3744 131.011L21.1142 127.114H19.653L17.6286 130.082L15.589 127.114H14.0973L16.8371 131.041L13.9451 135.12H15.3911L17.5981 131.985L19.7595 135.12ZM33.7758 124.253H32.4059V129.062H26.5611V124.253H25.1912V135.12H26.5611V130.219H32.4059V135.12H33.7758V124.253ZM41.0096 132.685C40.7813 133.37 40.142 134.253 38.696 134.253C37.2957 134.253 36.3672 133.081 36.3215 131.437H42.3643C42.5165 128.606 40.9183 126.931 38.696 126.931C36.489 126.931 35.0278 128.591 35.0278 131.132C35.0278 133.659 36.5194 135.318 38.696 135.318C40.9335 135.318 41.9229 134.009 42.3034 132.852L41.0096 132.685ZM38.696 127.997C40.1268 127.997 40.9487 129.123 41.0553 130.432H36.3368C36.4585 129.123 37.2805 127.997 38.696 127.997ZM43.5691 124.1V125.562H44.8934V124.1H43.5691ZM43.5996 127.114V135.12H44.8629V127.114H43.5996ZM53.4305 127.114H52.2128V128.256H52.1671C51.7409 127.434 50.7668 126.931 49.6252 126.931C47.5551 126.931 46.0939 128.469 46.0939 130.813C46.0939 133.157 47.5551 134.694 49.6252 134.694C50.7363 134.694 51.6953 134.207 52.1062 133.446H52.1519V134.512C52.1519 136.308 51.2539 137.053 49.7774 137.053C48.6206 137.053 47.7835 136.612 47.4486 135.425L46.2309 135.714C46.718 137.373 48.1031 138.104 49.7774 138.104C51.8475 138.104 53.4305 137.114 53.4305 134.588V127.114ZM49.8383 133.659C48.3619 133.659 47.3877 132.518 47.3877 130.813C47.3877 129.123 48.3619 127.997 49.8383 127.997C51.2539 127.997 52.2432 129.123 52.2432 130.813C52.2432 132.518 51.2539 133.659 49.8383 133.659ZM56.077 128.271V124.1H54.7985V135.12H56.077V130.782C56.077 128.956 57.2034 128.012 58.2688 128.012C59.5626 128.012 60.1715 128.651 60.1715 130.234V135.12H61.45V129.793C61.45 127.845 60.1563 126.931 58.6342 126.931C57.5687 126.931 56.625 127.449 56.1227 128.271H56.077ZM65.7845 134.04C65.0691 134.04 64.8103 133.872 64.8103 133.081V128.103H66.6673V127.114H64.8103V124.816H63.5318V127.114H62.2075V128.103H63.5318V133.4C63.5318 134.801 64.1102 135.166 65.5409 135.166C65.9367 135.166 66.3933 135.151 66.5912 135.136V134.024C66.3933 134.04 66.0128 134.04 65.7845 134.04Z" fill="#360802"/>
<path d="M26.302 198.653H25.1908C25.0691 199.399 24.5668 200.023 23.2425 200.023H22.9838V200.936H25.0234V209.323H26.302V198.653ZM32.1389 198.455C30.0993 198.455 28.1357 199.779 28.1357 203.996C28.1357 208.212 30.0993 209.536 32.1389 209.536C34.1785 209.536 36.142 208.212 36.142 203.996C36.142 199.779 34.1785 198.455 32.1389 198.455ZM32.1389 208.455C30.7842 208.455 29.4752 207.633 29.4752 204.011C29.4752 200.373 30.7842 199.536 32.1389 199.536C33.4783 199.536 34.8026 200.373 34.8026 204.011C34.8026 207.633 33.4783 208.455 32.1389 208.455ZM41.3732 198.455C39.3336 198.455 37.37 199.779 37.37 203.996C37.37 208.212 39.3336 209.536 41.3732 209.536C43.4128 209.536 45.3763 208.212 45.3763 203.996C45.3763 199.779 43.4128 198.455 41.3732 198.455ZM41.3732 208.455C40.0185 208.455 38.7095 207.633 38.7095 204.011C38.7095 200.373 40.0185 199.536 41.3732 199.536C42.7126 199.536 44.0369 200.373 44.0369 204.011C44.0369 207.633 42.7126 208.455 41.3732 208.455ZM48.9484 198.455C47.5633 198.455 46.5587 199.399 46.5587 201.484C46.5587 203.585 47.5633 204.528 48.9484 204.528C50.3335 204.528 51.3381 203.585 51.3381 201.484C51.3381 199.399 50.3335 198.455 48.9484 198.455ZM56.1175 198.653H55.1585L49.0854 209.323H50.0443L56.1175 198.653ZM48.9484 203.645C48.1112 203.645 47.6698 203.021 47.6698 201.484C47.6698 199.947 48.1112 199.323 48.9484 199.323C49.7855 199.323 50.2269 199.947 50.2269 201.484C50.2269 203.021 49.7855 203.645 48.9484 203.645ZM56.2392 203.463C54.8693 203.463 53.8648 204.422 53.8648 206.507C53.8648 208.577 54.8693 209.536 56.2392 209.536C57.6396 209.536 58.6289 208.577 58.6289 206.507C58.6289 204.422 57.6396 203.463 56.2392 203.463ZM56.2392 208.653C55.4021 208.653 54.9759 208.029 54.9759 206.507C54.9759 204.97 55.4021 204.346 56.2392 204.346C57.0916 204.346 57.5178 204.97 57.5178 206.507C57.5178 208.029 57.0916 208.653 56.2392 208.653Z" fill="#F73B20"/>
<path d="M921.961 198.653H920.85C920.728 199.399 920.226 200.023 918.902 200.023H918.643V200.936H920.683V209.323H921.961V198.653ZM927.798 198.455C925.759 198.455 923.795 199.779 923.795 203.996C923.795 208.212 925.759 209.536 927.798 209.536C929.838 209.536 931.801 208.212 931.801 203.996C931.801 199.779 929.838 198.455 927.798 198.455ZM927.798 208.455C926.443 208.455 925.134 207.633 925.134 204.011C925.134 200.373 926.443 199.536 927.798 199.536C929.138 199.536 930.462 200.373 930.462 204.011C930.462 207.633 929.138 208.455 927.798 208.455ZM937.032 198.455C934.993 198.455 933.029 199.779 933.029 203.996C933.029 208.212 934.993 209.536 937.032 209.536C939.072 209.536 941.036 208.212 941.036 203.996C941.036 199.779 939.072 198.455 937.032 198.455ZM937.032 208.455C935.678 208.455 934.369 207.633 934.369 204.011C934.369 200.373 935.678 199.536 937.032 199.536C938.372 199.536 939.696 200.373 939.696 204.011C939.696 207.633 938.372 208.455 937.032 208.455ZM944.608 198.455C943.223 198.455 942.218 199.399 942.218 201.484C942.218 203.585 943.223 204.528 944.608 204.528C945.993 204.528 946.997 203.585 946.997 201.484C946.997 199.399 945.993 198.455 944.608 198.455ZM951.777 198.653H950.818L944.745 209.323H945.704L951.777 198.653ZM944.608 203.645C943.77 203.645 943.329 203.021 943.329 201.484C943.329 199.947 943.77 199.323 944.608 199.323C945.445 199.323 945.886 199.947 945.886 201.484C945.886 203.021 945.445 203.645 944.608 203.645ZM951.898 203.463C950.529 203.463 949.524 204.422 949.524 206.507C949.524 208.577 950.529 209.536 951.898 209.536C953.299 209.536 954.288 208.577 954.288 206.507C954.288 204.422 953.299 203.463 951.898 203.463ZM951.898 208.653C951.061 208.653 950.635 208.029 950.635 206.507C950.635 204.97 951.061 204.346 951.898 204.346C952.751 204.346 953.177 204.97 953.177 206.507C953.177 208.029 952.751 208.653 951.898 208.653Z" fill="#F73B20"/>
<path d="M408.463 198.653H401.416V199.795H407.154V199.84C406.423 201.849 403.516 204.148 403.516 208.79V209.338H404.856V208.836C404.856 203.569 408.463 201.941 408.463 199.277V198.653ZM413.041 202.108C412.006 202.108 411.229 202.428 410.681 203.037H410.636L410.91 199.795H415.902V198.653H409.875L409.403 204.178H410.605C411.107 203.63 411.869 203.189 412.873 203.189C414.152 203.189 415.232 204.056 415.232 205.822C415.232 207.588 414.152 208.455 412.904 208.455C411.686 208.455 410.849 207.755 410.575 206.598L409.251 206.735C409.631 208.486 410.955 209.536 412.904 209.536C414.882 209.536 416.572 208.288 416.572 205.822C416.572 203.341 414.882 202.108 413.041 202.108ZM420.153 198.455C418.767 198.455 417.763 199.399 417.763 201.484C417.763 203.585 418.767 204.528 420.153 204.528C421.538 204.528 422.542 203.585 422.542 201.484C422.542 199.399 421.538 198.455 420.153 198.455ZM427.322 198.653H426.363L420.29 209.323H421.249L427.322 198.653ZM420.153 203.645C419.315 203.645 418.874 203.021 418.874 201.484C418.874 199.947 419.315 199.323 420.153 199.323C420.99 199.323 421.431 199.947 421.431 201.484C421.431 203.021 420.99 203.645 420.153 203.645ZM427.443 203.463C426.074 203.463 425.069 204.422 425.069 206.507C425.069 208.577 426.074 209.536 427.443 209.536C428.844 209.536 429.833 208.577 429.833 206.507C429.833 204.422 428.844 203.463 427.443 203.463ZM427.443 208.653C426.606 208.653 426.18 208.029 426.18 206.507C426.18 204.97 426.606 204.346 427.443 204.346C428.296 204.346 428.722 204.97 428.722 206.507C428.722 208.029 428.296 208.653 427.443 208.653Z" fill="#F73B20"/>
<path d="M458.881 198.653H451.834V199.795H457.572V199.84C456.841 201.849 453.934 204.148 453.934 208.79V209.338H455.274V208.836C455.274 203.569 458.881 201.941 458.881 199.277V198.653ZM463.459 202.108C462.424 202.108 461.647 202.428 461.099 203.037H461.054L461.328 199.795H466.32V198.653H460.293L459.821 204.178H461.023C461.525 203.63 462.287 203.189 463.291 203.189C464.57 203.189 465.65 204.056 465.65 205.822C465.65 207.588 464.57 208.455 463.322 208.455C462.104 208.455 461.267 207.755 460.993 206.598L459.668 206.735C460.049 208.486 461.373 209.536 463.322 209.536C465.3 209.536 466.99 208.288 466.99 205.822C466.99 203.341 465.3 202.108 463.459 202.108ZM470.571 198.455C469.185 198.455 468.181 199.399 468.181 201.484C468.181 203.585 469.185 204.528 470.571 204.528C471.956 204.528 472.96 203.585 472.96 201.484C472.96 199.399 471.956 198.455 470.571 198.455ZM477.74 198.653H476.781L470.708 209.323H471.666L477.74 198.653ZM470.571 203.645C469.733 203.645 469.292 203.021 469.292 201.484C469.292 199.947 469.733 199.323 470.571 199.323C471.408 199.323 471.849 199.947 471.849 201.484C471.849 203.021 471.408 203.645 470.571 203.645ZM477.861 203.463C476.492 203.463 475.487 204.422 475.487 206.507C475.487 208.577 476.492 209.536 477.861 209.536C479.262 209.536 480.251 208.577 480.251 206.507C480.251 204.422 479.262 203.463 477.861 203.463ZM477.861 208.653C477.024 208.653 476.598 208.029 476.598 206.507C476.598 204.97 477.024 204.346 477.861 204.346C478.714 204.346 479.14 204.97 479.14 206.507C479.14 208.029 478.714 208.653 477.861 208.653Z" fill="#F73B20"/>
</svg>
